<svg width="55" height="43" viewBox="0 0 55 43" fill="none" xmlns="http://www.w3.org/2000/svg">
<path fill-rule="evenodd" clip-rule="evenodd" d="M7.99075 0.23284C6.65673 0.640389 5.01511 1.85686 4.19161 3.04759C2.78417 5.08304 2.84884 4.27183 2.84884 19.9021V33.8136H1.70042C-0.0371342 33.8136 -0.0533893 33.845 0.0228865 37.0599C0.0780836 39.387 0.135246 39.8129 0.477504 40.4493C0.984818 41.3928 2.28204 42.5134 3.17163 42.7765C4.17893 43.0745 50.8211 43.0745 51.8284 42.7765C52.718 42.5134 54.0152 41.3928 54.5225 40.4493C54.8648 39.8129 54.9219 39.387 54.9771 37.0599C55.0534 33.8462 55.0366 33.8136 53.3035 33.8136H52.1594L52.1106 19.5732L52.0619 5.33276L51.4915 4.14397C50.7532 2.60548 49.4655 1.33416 47.9071 0.605295L46.7029 0.0422038L27.768 0.00869721C11.6054 -0.0196954 8.70974 0.013106 7.99075 0.23284ZM45.4337 1.54754C47.4937 1.84152 49.0589 2.92926 50.0446 4.75168L50.4542 5.50911L50.5029 19.6613L50.5517 33.8136H27.5041H4.45652V19.9767C4.45652 6.4958 4.46581 6.11488 4.81968 5.1811C5.53653 3.29007 7.35321 1.85351 9.4023 1.55777C10.9048 1.34086 43.9198 1.33151 45.4337 1.54754ZM26.5115 7.96869C25.0424 8.19407 23.5071 8.62807 22.6307 9.06542L22.1378 9.31143L22.1841 18.344L22.2304 27.3767L22.6225 27.4318C22.8383 27.4621 23.9636 27.2697 25.1233 27.0041C27.8809 26.3728 31.946 26.2957 34.1667 26.8329C35.5434 27.1658 35.5838 27.1658 36.9355 26.8329C38.72 26.3932 43.3743 26.3809 45.2739 26.8106C48.4848 27.5372 48.5348 27.5441 48.832 27.3004C49.0826 27.0951 49.1141 26.0823 49.1118 18.3172C49.1102 13.5035 49.0489 9.47191 48.9755 9.35799C48.8006 9.0864 47.1809 8.49704 45.7204 8.17308C42.7998 7.52552 40.1344 7.66501 37.2411 8.61643L35.6392 9.14337L34.0258 8.61555C32.4215 8.09072 30.0398 7.69763 28.6658 7.73097C28.2703 7.74049 27.3008 7.84753 26.5115 7.96869ZM32.0551 9.65602C32.4481 9.76042 33.2319 10.0107 33.7968 10.2121L34.8239 10.5782V17.9752C34.8239 24.938 34.8055 25.367 34.5113 25.2799C32.2997 24.6248 26.7015 24.8113 23.8827 25.6338C23.5883 25.7199 23.5701 25.2774 23.5701 18.0634V10.4016L24.0613 10.2168C25.8836 9.53134 27.4068 9.30261 29.5543 9.39185C30.5367 9.43276 31.6621 9.55162 32.0551 9.65602ZM45.9884 9.86535L47.4174 10.2706L47.4641 17.9985C47.5089 25.4607 47.4991 25.7227 47.1786 25.6224C46.2222 25.3228 43.7959 24.9695 42.0585 24.8771C40.2972 24.7835 37.4494 25.0007 36.6954 25.2864C36.4654 25.3736 36.4316 24.4382 36.4316 17.9735V10.5605L37.3694 10.2159C37.8851 10.0264 38.7493 9.78335 39.2897 9.67595C39.8301 9.56837 40.4329 9.44369 40.6294 9.3989C41.4817 9.20403 44.6199 9.4772 45.9884 9.86535ZM10.5697 11.0492C8.70153 11.7326 7.36626 12.9829 6.45506 14.9025C6.03402 15.7894 5.97489 16.1315 5.97489 17.6811C5.97489 19.3122 6.01884 19.5365 6.54562 20.5928C7.27194 22.0493 8.51289 23.2744 9.98821 23.9917C11.0582 24.5117 11.2851 24.5551 12.9376 24.5551C14.5823 24.5551 14.8263 24.5091 15.9381 23.9892C17.3984 23.3062 18.6306 22.1133 19.3723 20.6643C19.871 19.6899 19.9082 19.4825 19.9082 17.6774C19.9082 15.8879 19.8674 15.6555 19.3826 14.6794C18.7124 13.3298 17.3453 11.9796 15.9842 11.3231C14.5633 10.6378 12.0432 10.5103 10.5697 11.0492ZM26.6068 11.2204C25.2741 11.6458 24.1734 12.2237 24.0394 12.5685C23.9061 12.9113 24.1725 13.4529 24.5431 13.5933C24.6908 13.6493 25.3563 13.4404 26.0218 13.1291C27.1558 12.5988 27.3559 12.5632 29.197 12.5632C31.0585 12.5632 31.2302 12.5947 32.4579 13.1628C33.7246 13.749 33.7621 13.7551 34.1181 13.4372C34.9182 12.7222 34.111 11.953 31.8131 11.24C30.3528 10.787 27.9925 10.7781 26.6068 11.2204ZM38.9871 11.3733C37.3546 11.9311 36.7889 12.3334 36.7889 12.937C36.7889 13.5945 37.3757 13.7811 38.1761 13.3778C40.3897 12.2629 43.1455 12.1712 45.248 13.1425C46.5972 13.7659 47.1495 13.7019 47.1495 12.9224C47.1495 11.9167 45.0306 11.0478 42.3264 10.9448C40.6239 10.8801 40.3158 10.9196 38.9871 11.3733ZM13.8429 12.3151C15.1164 12.5475 15.6839 12.8221 16.624 13.6606C18.0195 14.9051 18.662 16.6709 18.3741 18.4694C17.9623 21.0411 15.9431 22.8489 13.2988 23.0133C11.0793 23.1512 9.19009 22.1297 8.11276 20.2096C7.63456 19.3571 7.58276 19.1088 7.58419 17.6774C7.58562 16.3015 7.64921 15.9714 8.06167 15.1973C8.87962 13.6619 10.2694 12.6491 12.0318 12.3041C12.4339 12.2253 12.7683 12.1523 12.7747 12.1417C12.7813 12.1309 13.262 12.2091 13.8429 12.3151ZM11.2697 13.944C11.1186 14.1239 11.0721 15.2182 11.1068 17.7881L11.1552 21.3808L11.6436 21.4363C12.0282 21.4801 12.588 21.1485 14.2791 19.8761C16.5036 18.2024 16.7884 17.91 16.6581 17.4319C16.5653 17.0903 12.2572 13.8197 11.8017 13.7451C11.6254 13.7162 11.386 13.8056 11.2697 13.944ZM26.9641 14.7371C25.6794 15.0711 24.3293 15.7523 24.0404 16.2121C23.8979 16.439 23.9329 16.5974 24.1859 16.8734C24.6135 17.34 24.823 17.3305 25.8909 16.7963C27.8635 15.8095 30.2727 15.8059 32.4422 16.7865C33.6458 17.3305 34.0356 17.3495 34.2916 16.8771C34.6228 16.2664 34.3321 15.8976 33.078 15.3367C30.9246 14.3738 29.0636 14.1913 26.9641 14.7371ZM40.5401 14.5366C39.7288 14.6706 37.9598 15.2917 37.358 15.6541C36.8919 15.9347 36.778 16.1091 36.8221 16.4734C36.9219 17.2968 37.3153 17.3467 38.822 16.7274C41.1437 15.7733 43.0942 15.8045 45.4159 16.8332C46.6254 17.3689 47.0602 17.261 47.0602 16.4244C47.0602 15.9948 46.9205 15.8403 46.167 15.4361C44.659 14.627 42.288 14.248 40.5401 14.5366ZM13.6085 16.8838C14.0691 17.2233 14.4492 17.5569 14.4529 17.6252C14.4615 17.779 12.8585 19 12.6479 19C12.5637 19 12.4949 18.3586 12.4949 17.5746C12.4949 16.7905 12.5571 16.1754 12.633 16.2078C12.709 16.2401 13.148 16.5443 13.6085 16.8838ZM26.9102 18.3115C25.8757 18.5517 24.3052 19.3379 24.0989 19.7187C23.6975 20.459 24.5681 21.1438 25.3048 20.6671C27.1504 19.4734 30.0795 19.333 32.3 20.3318C33.3949 20.8246 33.9715 20.8755 34.2809 20.5075C34.8262 19.8589 33.9456 19.1321 31.8131 18.4704C30.5943 18.0923 28.1892 18.0144 26.9102 18.3115ZM39.8024 18.296C38.8462 18.5329 37.2703 19.254 36.9984 19.579C36.642 20.0052 36.803 20.6648 37.2797 20.7316C37.5007 20.7627 38.2206 20.575 38.8796 20.3147C41.1766 19.4076 43.2003 19.4379 45.323 20.4114C46.558 20.9778 46.9167 20.9498 47.0888 20.2729C47.2368 19.6904 46.6613 19.1806 45.238 18.6339C44.0863 18.1914 40.9988 17.9996 39.8024 18.296ZM26.9641 21.9162C25.7149 22.2615 24.599 22.7919 24.1953 23.2325C23.9006 23.554 23.8993 23.6049 24.1759 24.0215C24.5431 24.5749 24.7487 24.5764 25.8405 24.0352C27.9988 22.9649 30.4108 22.987 32.7357 24.098C33.6608 24.5401 33.8209 24.5502 34.186 24.1899C34.8375 23.5465 34.2894 22.9418 32.4379 22.2611C30.8131 21.6638 28.4223 21.513 26.9641 21.9162ZM39.8256 21.9134C39.2852 22.0611 38.401 22.3985 37.8606 22.6632C37.0088 23.0804 36.8782 23.212 36.8782 23.6541C36.8782 24.4914 37.3126 24.5995 38.5225 24.0636C40.8829 23.0178 43.0628 22.9845 45.2101 23.9617C46.5993 24.5939 47.0152 24.5376 47.1163 23.7039C47.1811 23.1683 46.6284 22.7632 45.0059 22.1574C43.6915 21.6668 41.1627 21.5476 39.8256 21.9134ZM18.9366 36.8556C19.4587 37.6559 20.0068 38.4098 20.1545 38.531C20.3594 38.6992 22.1007 38.7514 27.5 38.7514C32.8993 38.7514 34.6406 38.6992 34.8455 38.531C34.9932 38.4098 35.5413 37.6559 36.0634 36.8556L37.0125 35.4007H45.2071H53.4016L53.3977 37.2083C53.3916 40.0002 52.7385 41.0191 50.7121 41.3986C49.446 41.6357 5.55404 41.6357 4.2879 41.3986C2.2615 41.0191 1.60842 40.0002 1.60235 37.2083L1.59842 35.4007H9.79297H17.9875L18.9366 36.8556ZM35.0025 35.5013C35.0025 35.5565 34.7575 35.9533 34.4581 36.383L33.9136 37.1643H27.5H21.0864L20.5419 36.383C20.2426 35.9533 19.9975 35.5565 19.9975 35.5013C19.9975 35.4459 23.3736 35.4007 27.5 35.4007C31.6264 35.4007 35.0025 35.4459 35.0025 35.5013Z" fill="white"/>
</svg>
