<svg width="21" height="25" viewBox="0 0 21 25" fill="none" xmlns="http://www.w3.org/2000/svg">
<path fill-rule="evenodd" clip-rule="evenodd" d="M4.70682 0.338374C4.53857 0.590631 4.46903 1.04998 4.46903 1.91037V3.12586L3.46397 3.1293C2.25134 3.13336 1.45756 3.47189 0.79065 4.2693C0.529631 4.58126 0.245831 5.10218 0.159917 5.42696C-0.0533056 6.23265 -0.0533056 21.9001 0.159917 22.7058C0.363163 23.4741 1.11138 24.3575 1.86197 24.7154C2.41572 24.9794 3.04005 25 10.4994 25C18.003 25 18.5804 24.9808 19.1461 24.711C19.9588 24.3236 20.6489 23.4118 20.841 22.4717C21.0578 21.4103 21.0508 6.68825 20.8329 5.62186C20.5118 4.05018 19.3051 3.13539 17.5448 3.1293C16.3794 3.12523 16.3553 3.09132 16.397 1.50416C16.4266 0.372915 16.254 0 15.701 0C15.1255 0 14.8919 0.551402 14.8919 1.91037V3.12586H10.4994H6.10691L6.10468 1.99274C6.10349 1.3696 6.01817 0.683782 5.91513 0.468879C5.65858 -0.0659556 5.02249 -0.134724 4.70682 0.338374ZM18.3385 4.84883C19.1016 5.0714 19.3589 5.56169 19.3589 6.79327V7.81465H10.4994H1.63996V6.75545C1.63996 5.52871 1.86272 5.07874 2.57728 4.86181C3.2433 4.65972 17.6491 4.64784 18.3385 4.84883ZM19.3589 15.8692C19.3589 23.0246 19.3703 22.9332 18.4335 23.2759C18.1295 23.3872 15.4378 23.4439 10.4725 23.4439C2.48139 23.4439 2.17362 23.4171 1.80078 22.6859C1.69297 22.4745 1.63996 20.2287 1.63996 15.8741V9.37758H10.4994H19.3589V15.8692Z" fill="white"/>
</svg>
