<svg width="57" height="49" viewBox="0 0 57 49" fill="none" xmlns="http://www.w3.org/2000/svg">
<path fill-rule="evenodd" clip-rule="evenodd" d="M3.63544 0.107237C3.08531 0.235695 2.02493 0.785726 1.58563 1.17033C0.969671 1.70954 0.441374 2.51859 0.209137 3.27797C-0.0140772 4.00756 -0.0161935 4.21349 0.013212 21.8939L0.0428403 39.7721L0.399382 40.5181C0.820527 41.3988 1.66471 42.3244 2.41689 42.73C3.63221 43.3854 2.94352 43.3588 18.7231 43.3588H33.1797V45.6799C33.1797 48.1468 33.2607 48.6244 33.72 48.868C34.2965 49.1737 34.4817 49.0601 36.2625 47.3088L37.9693 45.6305L39.676 47.3088C41.2317 48.8386 41.4176 48.9872 41.7771 48.9872C42.0548 48.9872 42.2585 48.901 42.4652 48.6962L42.7588 48.4052V45.8821V43.3588H47.7477C53.1679 43.3588 53.4721 43.3309 54.5863 42.73C55.3385 42.3244 56.1827 41.3988 56.6038 40.5181L56.9603 39.7721L56.9895 21.8991C57.0159 5.74649 57.0014 3.96728 56.8395 3.41537C56.3624 1.78933 54.9742 0.480693 53.3275 0.104588C52.7096 -0.0365613 4.24014 -0.0340232 3.63544 0.107237ZM53.5591 2.24997C54.3094 2.65808 54.84 3.32852 55.0009 4.07156C55.1326 4.68031 55.1804 38.3064 55.0507 39.0844C54.9375 39.763 54.3552 40.6055 53.7391 40.9821L53.191 41.3172L47.975 41.348L42.7588 41.3787V39.2552V37.1319L43.2292 36.657L43.6996 36.1822L45.3733 37.8369C47.2643 39.7065 47.4871 39.8292 48.085 39.3307L48.4394 39.0352V32.419C48.4394 26.0207 48.4468 25.7886 48.6622 25.3703C48.7847 25.1323 48.885 24.821 48.885 24.6784C48.885 24.2776 49.1117 24.0825 49.7462 23.9374C50.523 23.7598 51.137 23.3005 51.4477 22.6646C51.6714 22.2069 51.6933 22.0378 51.635 21.2201L51.569 20.2938L51.8768 20.1362C53.1735 19.4718 53.5886 17.9014 52.7997 16.6439C52.607 16.3368 52.4493 16.0405 52.4493 15.9856C52.4493 15.9307 52.6122 15.6569 52.8113 15.377C53.1401 14.9149 53.1733 14.794 53.1733 14.0594C53.1733 13.3368 53.1372 13.1997 52.8348 12.773C52.6485 12.5103 52.2878 12.1566 52.0329 11.987L51.5696 11.6786L51.6344 10.7685C51.69 9.98837 51.6667 9.79568 51.4719 9.42013C51.0758 8.65689 50.2143 8.04384 49.5378 8.04384C49.1848 8.04384 48.885 7.72942 48.885 7.35906C48.885 6.70926 48.2671 5.87362 47.4963 5.48107C47.1145 5.28651 46.9295 5.26554 46.1337 5.32613L45.2127 5.39621L44.9367 4.96305C44.1614 3.74623 42.7419 3.41592 41.5203 4.16835C41.2131 4.35751 40.9184 4.51234 40.8653 4.51234C40.8121 4.51234 40.5174 4.35751 40.2102 4.16835C38.9584 3.39727 37.5319 3.74589 36.7393 5.01668L36.5031 5.3951L35.5896 5.32558C34.8032 5.26565 34.6143 5.28717 34.2328 5.48008C33.4241 5.88874 32.8456 6.64713 32.8456 7.29836C32.8456 7.67756 32.5397 8.04384 32.2231 8.04384C31.3857 8.04384 30.3692 8.87738 30.1039 9.78167C29.9598 10.2725 29.9554 10.4576 30.0747 10.986C30.2105 11.5869 30.2062 11.6169 29.9634 11.786C28.3136 12.9341 28.0661 14.1195 29.1309 15.7725C29.3039 16.0411 29.2964 16.0723 28.9412 16.5715C28.6478 16.9841 28.5617 17.2276 28.5233 17.7538C28.4569 18.6622 28.8705 19.5278 29.5718 19.9484C30.1453 20.2925 30.2236 20.4681 30.0643 21.054C29.8987 21.6634 30.0307 22.3216 30.439 22.9218C30.8421 23.5143 31.2922 23.8013 32.0962 23.9782L32.6739 24.1053L32.8943 24.8206C33.1037 25.4999 33.1164 25.9325 33.1487 33.4553L33.1826 41.3748L18.4975 41.346L3.81243 41.3172L3.26419 40.9821C2.64801 40.6055 2.0657 39.7631 1.95253 39.0844C1.82277 38.3064 1.87055 4.68031 2.00232 4.07156C2.22609 3.03783 3.19112 2.14281 4.27545 1.96337C4.5205 1.92276 15.5726 1.89616 28.8357 1.90422L52.9505 1.9189L53.5591 2.24997ZM39.2506 5.83743C39.2889 5.89856 39.4798 6.03111 39.6749 6.13197C40.4947 6.55553 41.4469 6.5051 42.2274 5.99678C42.8214 5.60986 43.0281 5.64838 43.4253 6.22037C44.0309 7.09243 45.1245 7.53166 46.0653 7.2807C46.6315 7.12962 46.8646 7.21107 46.9417 7.58695C47.1157 8.43451 47.2654 8.75488 47.6933 9.19511C48.1341 9.64868 48.4187 9.78178 49.3509 9.97038C49.731 10.0472 49.8174 10.322 49.6581 10.9484C49.5552 11.3535 49.5649 11.5585 49.7108 12.0556C49.8865 12.6549 50.1501 12.991 50.9973 13.6975L51.3586 13.9988L51.125 14.3597C50.6389 15.1111 50.5314 15.4637 50.5762 16.1601C50.6102 16.6891 50.6986 16.957 50.9849 17.3991C51.3792 18.008 51.3521 18.3275 50.894 18.4715C50.7736 18.5093 50.4763 18.7641 50.2333 19.0376C49.6823 19.6578 49.4989 20.3629 49.676 21.1808C49.8224 21.8574 49.7286 22.0072 49.1061 22.0898C48.0926 22.2246 47.1823 23.1131 47.0261 24.1203C46.9224 24.7882 46.8427 24.8344 45.9329 24.7527C45.4073 24.7055 44.9864 24.7274 44.7145 24.8164C44.2241 24.9767 43.5921 25.4993 43.367 25.9307C43.1208 26.4022 42.8302 26.4311 42.2385 26.0428C41.3379 25.4518 40.4475 25.4455 39.5088 26.0236C39.2053 26.2105 38.8858 26.3635 38.7986 26.3635C38.7117 26.3635 38.5191 26.1731 38.3708 25.9405C37.7594 24.9808 37.0306 24.6423 35.798 24.7456C34.916 24.8195 34.7391 24.7394 34.7391 24.2662C34.7391 24.1082 34.6106 23.7235 34.4536 23.4113C34.1201 22.7481 33.4193 22.2283 32.7006 22.1109C31.9877 21.9945 31.9581 21.9416 32.031 20.9165C32.0865 20.1386 32.0631 19.9483 31.8645 19.5627C31.6396 19.1259 30.9375 18.4176 30.7293 18.4176C30.6724 18.4176 30.5706 18.3154 30.5031 18.1904C30.401 18.0017 30.4428 17.8666 30.7497 17.3928C31.0794 16.8837 31.1191 16.7381 31.1191 16.0377C31.1191 15.3427 31.0774 15.1862 30.7537 14.6705C30.5527 14.3501 30.4148 14.0069 30.4473 13.9077C30.4798 13.8085 30.7072 13.6139 30.9529 13.4752C31.1985 13.3365 31.5369 13.017 31.7049 12.765C31.9868 12.3423 32.0102 12.222 32.0102 11.199C32.0102 9.95272 31.893 10.1091 33.0511 9.80937C33.7324 9.63301 34.4304 8.91888 34.6184 8.20574C34.6979 7.90423 34.7846 7.57525 34.811 7.47461C34.8818 7.20478 35.1515 7.14364 35.6653 7.2807C36.6079 7.53221 37.6183 7.1315 38.2548 6.25381C38.532 5.87142 38.7121 5.72629 38.9093 5.72629C39.059 5.72629 39.2126 5.77629 39.2506 5.83743ZM9.45985 7.61256C8.26781 7.84409 6.78272 8.94658 6.23805 10.0044C5.66141 11.1243 5.66776 10.9937 5.66776 21.6732C5.66776 32.6423 5.64927 32.3302 6.36859 33.5216C7.05294 34.655 8.37151 35.5238 9.74588 35.7467C10.708 35.9028 28.3674 35.8893 28.8225 35.7321C29.5309 35.4874 29.6836 34.5522 29.0906 34.09C28.8102 33.8715 28.6553 33.8679 19.3252 33.8668L9.84468 33.8657L9.28698 33.6085C8.67937 33.3282 8.06698 32.7132 7.82584 32.1414C7.69964 31.8421 7.67313 29.9976 7.67513 21.6492C7.67747 12.0886 7.68894 11.4954 7.88052 11.0787C8.09906 10.6032 8.83487 9.88209 9.3214 9.66667C9.54461 9.5679 11.982 9.51945 18.793 9.47851L27.9641 9.42333L28.2328 9.11366C28.6045 8.68547 28.5841 8.21898 28.176 7.81462L27.8504 7.49204L18.9033 7.50418C13.9823 7.5108 9.73274 7.55958 9.45985 7.61256ZM39.1388 8.63768C36.8753 9.23153 35.0223 10.6842 34.0686 12.6126C33.4774 13.808 33.2605 14.7144 33.2605 15.9897C33.2605 19.4533 35.575 22.4295 38.9736 23.3363C39.9429 23.595 41.7865 23.5951 42.7588 23.3366C44.7571 22.8052 46.7418 21.2196 47.6334 19.4425C48.2709 18.1721 48.4793 17.1535 48.4153 15.6202C48.3313 13.6121 47.7097 12.2009 46.2674 10.7433C45.4064 9.87327 44.3108 9.18186 43.2044 8.81028C42.2972 8.50558 40.012 8.40858 39.1388 8.63768ZM42.0077 10.5233C43.1117 10.755 44.197 11.3637 44.9743 12.1869C45.7482 13.0066 46.1692 13.8311 46.4147 15.0073C47.1129 18.3533 44.3724 21.618 40.8653 21.618C38.2516 21.618 35.9547 19.8192 35.3562 17.3038C34.8877 15.3345 35.4204 13.5274 36.9009 12.0631C38.3317 10.6481 40.0847 10.1195 42.0077 10.5233ZM11.1256 13.1983C10.7302 13.3415 10.4573 13.7139 10.4609 14.1052C10.4648 14.5397 10.6093 14.7834 10.979 14.9785C11.2876 15.1413 24.6627 15.1628 25.0918 15.0012C25.8363 14.7208 25.8388 13.5829 25.0958 13.2752C24.7879 13.1477 23.5327 13.1219 18.0072 13.1291C14.3142 13.1338 11.2175 13.1651 11.1256 13.1983ZM11.1557 16.9485C10.4826 17.0817 10.2297 18.1088 10.752 18.5885L11.0467 18.8591H17.9994C22.5549 18.8591 25.0258 18.8199 25.1662 18.7454C25.4717 18.5835 25.7342 18.0274 25.6543 17.7116C25.6171 17.5652 25.4617 17.3288 25.3088 17.1866L25.0308 16.9278L18.2175 16.9136C14.4701 16.9058 11.2922 16.9215 11.1557 16.9485ZM10.7307 21.0061C10.3587 21.3746 10.3587 21.9719 10.7307 22.3403L11.0041 22.6113H18.0202H25.0362L25.3432 22.3497C25.7466 22.006 25.7654 21.4145 25.3857 21.014L25.1212 20.7352H18.0626H11.0041L10.7307 21.0061ZM13.9833 26.4885C13.7229 26.6385 13.4647 27.2438 13.4647 27.7046C13.4647 28.5654 12.6636 29.4647 11.4057 30.0159C10.7029 30.3241 10.4573 30.5888 10.4573 31.0389C10.4573 31.6112 10.8211 31.9918 11.368 31.9918C12.0471 31.9918 13.2644 31.3142 14.1554 30.4401L14.9019 29.7078L15.2674 30.0816C15.4685 30.2872 15.9301 30.6024 16.2931 30.7822C17.1352 31.1991 17.7854 31.2138 18.5417 30.833C19.063 30.5706 19.1102 30.5653 19.5131 30.7241C20.9027 31.2718 23.5249 31.7711 25.0126 31.7711C25.9775 31.7711 26.0831 31.7495 26.3346 31.5002C26.712 31.1263 26.7035 30.5714 26.3144 30.1859C26.0733 29.9471 25.9183 29.895 25.4482 29.895C24.5564 29.895 23.0945 29.6883 21.8742 29.3897C20.3202 29.0094 19.9499 28.831 19.698 28.3417C19.178 27.332 17.9762 27.6493 17.7862 28.8466C17.7633 28.9902 17.6503 29.0789 17.4629 29.1005C16.9841 29.1559 16.1405 28.4024 15.6536 27.4844C15.425 27.0536 15.1287 26.625 14.9949 26.5322C14.7137 26.3371 14.2788 26.3184 13.9833 26.4885ZM36.5188 26.7222C36.5837 26.7981 36.7816 27.0646 36.9588 27.3145C37.3186 27.822 38.0672 28.2396 38.6171 28.2396H38.9717V33.6374V39.0352L39.3262 39.3307C39.7387 39.6746 40.1866 39.6481 40.6093 39.2546L40.8653 39.0163V42.372V45.7276L39.7236 44.604C38.5851 43.4835 38.1464 43.1948 37.7754 43.3216C37.6675 43.3584 37.0407 43.9149 36.382 44.5582L35.1847 45.7278V36.2729V26.818L35.6581 26.7129C36.3209 26.5658 36.3861 26.5666 36.5188 26.7222ZM46.2248 26.7688L46.5459 26.8325V31.509C46.5459 34.081 46.5207 36.1855 46.4899 36.1855C46.4591 36.1855 46.0706 35.8053 45.6266 35.3406C44.6591 34.328 44.0484 33.8679 43.6717 33.8679C43.4661 33.8679 43.0612 34.1922 42.129 35.1034L40.8653 36.3388V31.8895V27.4402L41.1159 27.6188C41.847 28.1403 42.2271 28.2631 42.9719 28.2191C43.8278 28.1684 44.4249 27.8376 44.8741 27.165C45.2316 26.63 45.3211 26.5691 45.64 26.6436C45.7849 26.6775 46.0481 26.7339 46.2248 26.7688Z" fill="white"/>
</svg>
