<svg width="25" height="25" viewBox="0 0 25 25" fill="none" xmlns="http://www.w3.org/2000/svg">
<path fill-rule="evenodd" clip-rule="evenodd" d="M11.5348 0.0149968C10.328 0.144347 9.32197 0.358697 8.38276 0.686587C5.48021 1.69974 3.06525 3.72844 1.55024 6.42639C0.845511 7.68134 0.320446 9.24988 0.0927045 10.7803C-0.0309015 11.6109 -0.0309015 13.3995 0.0927045 14.2301C0.502201 16.9819 1.72302 19.4263 3.64982 21.3524C5.57986 23.2817 7.98052 24.4787 10.7779 24.9065C11.5097 25.0184 13.4485 25.0334 14.0925 24.9322C17.0711 24.4639 19.372 23.3286 21.35 21.3514C23.3203 19.3819 24.4655 17.0624 24.9322 14.0966C25.0334 13.4529 25.0184 11.5148 24.9064 10.7833C24.4311 7.67763 22.9731 5.00056 20.6875 3.03702C18.8471 1.45601 16.6747 0.467542 14.2491 0.107405C13.7383 0.0315895 11.9485 -0.029355 11.5348 0.0149968ZM13.5519 1.70736C14.3688 1.791 15.1124 1.94894 15.8933 2.20472C21.5689 4.06353 24.6769 10.2067 22.8105 15.8767C21.4599 19.9793 17.8551 22.8711 13.5519 23.304C10.0939 23.6518 6.5934 22.2579 4.31947 19.6276C0.902564 15.6752 0.748891 9.96086 3.94819 5.82289C6.17931 2.9371 9.91708 1.33532 13.5519 1.70736ZM11.6653 9.2457C11.6653 12.0622 11.6782 12.6947 11.7383 12.833C11.7793 12.9271 12.7428 13.9296 13.9307 15.1139L16.0499 17.2268L16.6368 16.6401L17.2238 16.0533L15.2797 14.1094L13.3356 12.1655V8.99592V5.82633H12.5004H11.6653V9.2457Z" fill="white"/>
</svg>
