<svg width="27" height="27" viewBox="0 0 27 27" fill="none" xmlns="http://www.w3.org/2000/svg">
<path fill-rule="evenodd" clip-rule="evenodd" d="M9.6071 0.108706C9.26795 0.244936 8.96958 0.969299 8.5568 2.65959C8.24625 3.93073 8.12203 4.21079 7.89812 4.14529C4.80443 3.23996 4.49844 3.18122 4.03337 3.40354C3.26435 3.77121 3.17364 4.36542 3.63008 6.04389C3.84907 6.84895 4.06231 7.66362 4.10378 7.85404C4.17198 8.16668 4.0107 8.23994 2.44692 8.60828C0.397435 9.09074 0.0232464 9.33518 0.0232464 10.1916C0.0232464 10.7351 0.178439 10.9644 1.32639 12.1162C2.04312 12.8353 2.62953 13.471 2.62953 13.5291C2.62953 13.587 2.06495 14.1805 1.37496 14.8478C-0.00569304 16.1833 -0.216227 16.6274 0.174208 17.3807C0.439914 17.8932 0.851335 18.0647 3.05263 18.5811C3.51804 18.6903 3.96077 18.8348 4.03659 18.9025C4.11224 18.97 3.97905 19.6971 3.74042 20.518C3.23016 22.2733 3.19581 22.9755 3.60266 23.3241C4.15743 23.7993 4.51604 23.7971 6.35043 23.3069L8.18448 22.8168L8.56188 24.3625C9.02898 26.2747 9.28775 26.8023 9.82525 26.9368C10.5511 27.1185 10.9707 26.8857 12.2684 25.5804L13.5297 24.3117L14.9131 25.6584C16.0018 26.7184 16.4 27.0042 16.7827 27C17.722 26.9897 17.986 26.5896 18.5333 24.3466C18.743 23.4877 18.9251 22.7851 18.9381 22.7851C18.9511 22.7851 19.7515 23.0103 20.7165 23.2853C22.3236 23.7436 22.5187 23.7657 23.0371 23.5497C23.8513 23.2103 23.9088 22.7304 23.3742 20.7457C23.1253 19.8218 22.9625 18.9999 23.0126 18.9192C23.0625 18.8385 23.7905 18.603 24.6305 18.396C26.4935 17.9369 27 17.5873 27 16.7608C27 16.2436 26.8245 15.9829 25.7014 14.8316L24.4027 13.5006L25.7014 12.1695C26.8291 11.0135 27 10.7589 27 10.2348C27 9.35898 26.5671 9.06103 24.6318 8.60541C23.5385 8.34798 22.9383 8.12718 22.9383 7.98268C22.9383 7.85944 23.1395 7.04797 23.3856 6.17928C23.9188 4.29604 23.855 3.79231 23.0401 3.45266C22.527 3.23878 22.3222 3.26123 20.7222 3.70604C19.7569 3.97445 18.9403 4.16706 18.9073 4.13415C18.8743 4.1014 18.6606 3.32757 18.4324 2.41499C18.1244 1.18301 17.9076 0.657507 17.5913 0.375595C16.8455 -0.289179 16.434 -0.138094 14.8862 1.36887L13.4757 2.74214L12.1567 1.3682C11.0593 0.225185 10.7523 -0.00321468 10.3299 0.0084332C10.0507 0.0160296 9.7254 0.0612707 9.6071 0.108706ZM13.0198 4.38078C13.753 4.65476 14.4385 4.35124 15.4932 3.28605C15.9981 2.77624 16.4642 2.35911 16.5293 2.35911C16.5943 2.35911 16.7844 2.93796 16.9516 3.64544C17.4815 5.88758 18.1148 6.2338 20.4855 5.57815C21.1337 5.39887 21.6925 5.28054 21.7273 5.31514C21.762 5.34992 21.6224 6.013 21.417 6.78868C21.0678 8.10692 21.0607 8.24028 21.3078 8.83027C21.5933 9.51175 22.0657 9.78624 23.5445 10.1298C24.0023 10.2361 24.4859 10.3573 24.6193 10.3992C24.785 10.451 24.5337 10.8067 23.8246 11.5236C22.1051 13.2619 22.1051 13.7393 23.8246 15.4775C24.5472 16.2079 24.7882 16.5515 24.6193 16.6099C24.4859 16.656 23.8818 16.8163 23.2767 16.9664C21.1507 17.4936 20.8661 17.983 21.4149 20.1679C21.617 20.9726 21.7558 21.6575 21.7233 21.69C21.6908 21.7225 21.1337 21.6023 20.4855 21.423C18.032 20.7444 17.4779 21.1 16.8516 23.7558C16.7366 24.2431 16.5906 24.642 16.5268 24.642C16.4632 24.642 16.0013 24.2283 15.5007 23.7227C13.8738 22.0795 13.3067 22.0812 11.5896 23.7347L10.4487 24.8333L10.1373 23.5159C9.75806 21.911 9.14593 21.0955 8.32376 21.0999C8.03098 21.1016 7.22015 21.2521 6.52204 21.4346C5.82393 21.6171 5.24394 21.7677 5.23311 21.7694C5.22245 21.7709 5.35564 21.2611 5.52928 20.6365C6.21064 18.1855 5.862 17.4578 3.76547 16.9546C3.09409 16.7935 2.48263 16.6264 2.40664 16.5834C2.33066 16.5405 2.76848 15.9885 3.37977 15.357C4.37896 14.3245 4.49117 14.1392 4.49117 13.5201C4.49117 12.9042 4.37456 12.7083 3.38417 11.661C2.77525 11.0174 2.33726 10.4566 2.41104 10.4151C2.48466 10.3735 3.08868 10.2089 3.75328 10.0494C5.15018 9.71416 5.85743 9.1348 5.88096 8.30645C5.88908 8.02538 5.75572 7.25764 5.58479 6.60012C5.41386 5.94261 5.31113 5.36747 5.35666 5.32206C5.40218 5.27665 5.93055 5.38857 6.53084 5.57055C7.87121 5.97704 8.69389 5.98785 9.16776 5.60499C9.64823 5.21672 9.80477 4.86864 10.1595 3.39864L10.4587 2.15924L11.4943 3.17851C12.0639 3.73896 12.7504 4.28 13.0198 4.38078Z" fill="white"/>
</svg>
