<svg width="36" height="44" viewBox="0 0 36 44" fill="none" xmlns="http://www.w3.org/2000/svg">
<path fill-rule="evenodd" clip-rule="evenodd" d="M0.158313 2.85033C0.642862 1.4577 1.64843 0.488935 2.98306 0.129002C3.35846 0.027674 5.28482 0.00713335 14.7158 0.00386748L25.9993 0L30.9996 5.51442L36 11.0288L35.9763 25.9028C35.9536 40.2234 35.9467 40.7924 35.7914 41.1944C35.2426 42.6151 34.2747 43.5216 32.9331 43.8716C32.5069 43.9828 30.5217 43.9998 17.9764 43.9998C3.9912 43.9998 3.10076 44.0196 2.38682 43.6744C2.29745 43.6312 2.21084 43.5823 2.10166 43.5268C1.27689 43.1082 0.517241 42.1775 0.158313 41.1459C0.00634977 40.7091 0 39.9456 0 21.9981C0 4.05062 0.00634977 3.28718 0.158313 2.85033ZM22.1533 12.8509C21.9681 12.5044 21.9662 12.4556 21.9418 7.28023L21.9173 2.05913L12.7176 2.06102C3.96614 2.06283 3.50107 2.07065 3.17003 2.22122C2.7416 2.41614 2.24907 2.97727 2.11607 3.42203C1.97286 3.90083 1.97286 40.0954 2.11607 40.5742C2.24907 41.019 2.7416 41.5801 3.17003 41.775C3.50373 41.9268 4.11399 41.9333 17.9764 41.9333C31.8389 41.9333 32.4492 41.9268 32.7829 41.775C33.2113 41.5801 33.7038 41.019 33.8368 40.5742C33.9105 40.3278 33.9364 36.83 33.9364 27.1233V14.0053L28.8095 14.0048C25.4598 14.0046 23.569 13.9728 23.3547 13.9132C22.95 13.8006 22.4018 13.316 22.1533 12.8509ZM33.5817 11.62C33.4229 11.4425 31.4259 9.21869 29.144 6.67819L24.9951 2.05913H24.489H23.9829V7.00091V11.9427H28.9267H33.8706L33.5817 11.62Z" fill="black"/>
</svg>
