<svg width="35" height="35" viewBox="0 0 35 35" fill="none" xmlns="http://www.w3.org/2000/svg">
<path fill-rule="evenodd" clip-rule="evenodd" d="M17.0111 0.16066C16.9268 0.244231 16.8578 0.546227 16.8578 0.831762C16.8578 1.41511 17.03 1.65481 17.449 1.65481C17.8551 1.65481 18.1349 1.32344 18.1349 0.842399C18.1349 0.18054 17.4253 -0.249978 17.0111 0.16066ZM9.22073 3.07299C8.89711 3.39385 9.04934 3.88528 9.63936 4.42444C10.2832 5.01285 10.6215 5.07693 10.912 4.66553C11.2041 4.25223 11.1655 4.1137 10.5838 3.48806C10.04 2.90306 9.54435 2.75213 9.22073 3.07299ZM16.4833 3.24988C16.2332 3.45856 15.7332 4.28414 15.115 5.5096L14.1407 7.4406L12.083 7.7298C10.9512 7.88872 9.83604 8.10461 9.60463 8.20945C9.0874 8.4437 8.81205 8.94311 8.81205 9.64688C8.81205 10.1621 8.87106 10.2399 10.493 11.8639L12.1739 13.5471L11.819 15.6465C11.6145 16.8562 11.4983 17.9159 11.5448 18.1464C11.6549 18.6922 12.0776 19.1043 12.6968 19.2696C13.2022 19.4046 13.2605 19.3837 15.3298 18.3256L17.4459 17.2435L18.2056 17.6578C21.3657 19.3815 21.6093 19.4709 22.3506 19.1769C22.7762 19.008 22.943 18.8488 23.1274 18.4355C23.3604 17.9133 23.3592 17.8917 22.9835 15.7016L22.6047 13.4941L24.2591 11.8804C26.0754 10.1088 26.2397 9.81377 25.8824 8.9659C25.5782 8.24402 25.2234 8.10246 22.8186 7.74348L20.6253 7.41616L19.6036 5.39703C18.4965 3.20886 18.2357 2.92294 17.3466 2.92167C17.0272 2.92129 16.7517 3.02601 16.4833 3.24988ZM24.2916 3.464C23.9961 3.76258 23.7542 4.1289 23.7542 4.27793C23.7542 4.60804 24.0735 4.94701 24.3845 4.94701C24.6049 4.94701 25.7976 3.79993 25.7976 3.58771C25.7976 3.33409 25.3744 2.92104 25.1146 2.92104C24.947 2.92104 24.6071 3.14542 24.2916 3.464ZM18.5627 6.29048C19.0881 7.34284 19.6605 8.31493 19.8348 8.45092C20.0746 8.63794 20.685 8.77014 22.3477 8.99502C23.9998 9.21851 24.5625 9.33994 24.6187 9.48518C24.6695 9.61649 24.2271 10.1223 23.2341 11.0685C22.4314 11.8331 21.6745 12.6063 21.5521 12.7865C21.2554 13.2231 21.2669 13.5295 21.6687 15.867C21.8572 16.9632 21.9681 17.9029 21.9151 17.9555C21.8622 18.0079 20.9111 17.5812 19.8017 17.0071C18.5916 16.3809 17.6322 15.9632 17.4041 15.9632C17.1947 15.9632 16.7707 16.0955 16.4618 16.2574C13.844 17.6279 13.0053 18.0187 12.9021 17.9156C12.8321 17.8456 12.9352 16.9429 13.1611 15.6472C13.4512 13.9841 13.5071 13.4071 13.4075 13.1077C13.3323 12.8817 12.6136 12.0677 11.6812 11.1524C10.8027 10.2899 10.1037 9.52532 10.128 9.45314C10.1523 9.38109 11.1844 9.17698 12.4217 8.99983C14.3897 8.71797 14.7145 8.6382 15.0157 8.36343C15.2051 8.19059 15.7519 7.25155 16.2307 6.27655C17.158 4.38797 17.3378 4.10484 17.503 4.27173C17.5604 4.32972 18.0373 5.23824 18.5627 6.29048ZM27.2663 10.4955C26.2867 10.688 26.6291 11.7847 27.6687 11.7847C27.8939 11.7847 28.1684 11.6951 28.2789 11.5857C28.5194 11.3472 28.5419 10.8516 28.3199 10.6776C28.1185 10.5197 27.5996 10.43 27.2663 10.4955ZM6.39002 10.7633C6.18759 11.1384 6.2305 11.3714 6.54174 11.5875C7.15488 12.0135 8.04579 11.7273 8.04579 11.1046C8.04579 10.6758 7.8002 10.5184 7.13074 10.5184C6.65987 10.5184 6.49231 10.5738 6.39002 10.7633ZM8.96556 18.4917C8.18193 19.0546 7.97938 19.5515 8.37413 19.9428C8.70516 20.2709 9.0911 20.1715 9.66925 19.6089C10.2834 19.0114 10.3645 18.6125 9.93297 18.313C9.56338 18.0562 9.575 18.054 8.96556 18.4917ZM24.9356 18.2464C24.7161 18.3338 24.6482 18.4633 24.6482 18.7934C24.6482 19.5816 25.9387 20.4577 26.4106 19.9898C26.7342 19.669 26.582 19.1775 25.992 18.6384C25.3779 18.0772 25.3686 18.0738 24.9356 18.2464ZM16.9933 20.3223C16.9102 20.4216 16.8601 20.7483 16.882 21.0481C16.9157 21.5111 16.9741 21.6114 17.2691 21.7137C17.7343 21.875 18.1349 21.5285 18.1349 20.9648C18.1349 20.2961 17.3739 19.8678 16.9933 20.3223ZM9.40055 21.5399C8.98676 21.6041 7.98717 21.8571 7.17927 22.1021C6.3715 22.3472 5.64648 22.5476 5.56832 22.5476C5.49016 22.5476 5.35377 22.3854 5.26526 22.1871C5.17676 21.9889 4.95889 21.761 4.78111 21.6806C4.34549 21.4838 0.971369 21.4849 0.598198 21.6819C0.00536358 21.995 0.0083014 21.9677 0.00408694 27.2067L0 32.1825L0.313531 32.4932C0.620037 32.7972 0.671759 32.8041 2.65894 32.8041C4.52122 32.8041 4.71892 32.7822 5.02734 32.5416C5.27663 32.3472 5.36386 32.164 5.36386 31.8351C5.36386 31.4193 5.38621 31.3953 5.71506 31.4563C5.90829 31.4923 6.35362 31.5576 6.70482 31.6017C7.98308 31.7622 8.9132 32.0849 10.7704 33.012C13.9695 34.6092 16.3075 35.2084 18.2825 34.937C20.363 34.6511 24.0243 33.0762 28.5434 30.5233C34.5049 27.1557 35.9043 25.6592 34.4939 24.1601C34.0078 23.6434 33.9715 23.6288 33.0512 23.5827C31.4721 23.5037 29.9329 24.1136 24.4213 27.0025C23.5903 27.438 23.3297 27.8232 23.5887 28.2336C23.8619 28.6665 24.3248 28.5159 27.2059 27.056C30.0236 25.6282 32.0341 24.8268 32.7982 24.8268C34.1657 24.8268 33.7421 25.6958 31.7018 27.0764C29.4434 28.6045 24.7608 31.1656 22.094 32.3314C19.6413 33.4035 18.8248 33.6196 17.241 33.6156C15.4308 33.611 14.3854 33.3052 11.6855 31.9903C9.20911 30.7842 8.33441 30.4859 6.59729 30.2548L5.36386 30.0905V27.0388V23.9869L7.30238 23.44C9.62417 22.785 11.0358 22.6508 12.1691 22.9775C12.9673 23.2076 13.3363 23.401 14.9422 24.4319C15.5392 24.8152 16.5925 25.3729 17.2826 25.6714C19.1357 26.4725 20.5151 27.3188 21.4863 28.2505C22.1919 28.9273 22.3494 29.151 22.3494 29.4765C22.3494 30.2568 21.93 30.1925 17.6241 28.7523C14.7247 27.7825 12.6923 27.3012 11.8439 27.3833C11.5603 27.4108 11.3804 27.5249 11.2467 27.7622C11.0725 28.0713 11.0764 28.1247 11.2894 28.3581C11.4303 28.5123 11.759 28.6445 12.1153 28.6901C13.5573 28.8747 14.8223 29.2129 17.688 30.1802C20.4829 31.1235 20.8411 31.215 21.7522 31.218C22.7415 31.2213 22.7559 31.2166 23.1813 30.7567C24.0671 29.7989 23.8618 28.71 22.5511 27.4156C21.5349 26.412 20.1281 25.5126 18.2862 24.6889C17.4655 24.3218 16.3917 23.7661 15.9 23.4538C14.4169 22.5119 13.8891 22.2233 13.0136 21.8761C12.0507 21.4941 10.5796 21.3572 9.40055 21.5399ZM21.9589 21.5218C21.3668 21.7113 21.0546 21.9284 19.9078 22.9477C18.6695 24.0486 18.5116 24.3976 19.0838 24.7693C19.4875 25.0316 19.7181 24.91 20.9511 23.7836C21.8285 22.9822 22.4308 22.6801 22.865 22.8235C22.9453 22.8501 22.4313 23.3147 21.7225 23.8559C20.6114 24.7043 20.4337 24.8908 20.4337 25.2087C20.4337 25.5741 20.7168 25.8398 21.1059 25.8398C21.204 25.8398 21.9692 25.325 22.8065 24.6958C24.5804 23.3628 25.461 22.8921 26.0727 22.9501L26.5 22.9908L25.7337 23.4199C24.0126 24.3838 21.9757 25.7375 21.9025 25.9662C21.8014 26.2822 22.0232 26.6868 22.3548 26.7911C22.544 26.8508 22.974 26.6496 23.9194 26.059C26.7276 24.3048 27.511 23.9086 28.648 23.6667C29.1666 23.5564 29.3552 23.5711 29.762 23.7529C30.3854 24.0316 30.8727 23.926 30.9836 23.4883C31.092 23.0602 30.6465 22.5905 29.9565 22.4055C29.3349 22.2386 28.2071 22.3351 27.5382 22.6122C27.065 22.8083 27.0556 22.8069 27.1367 22.5537C27.4821 21.4743 25.8155 21.2534 24.1898 22.1631C23.5577 22.5168 23.5395 22.5195 23.5897 22.2528C23.6182 22.1015 23.5642 21.8744 23.4698 21.7479C23.2743 21.4856 22.4549 21.363 21.9589 21.5218ZM4.05648 27.201L4.02289 31.4745H2.68193H1.34096L1.30738 27.201L1.27366 22.9275H2.68193H4.0902L4.05648 27.201Z" fill="#903F97"/>
</svg>
