<svg width="18" height="18" viewBox="0 0 18 18" fill="none" xmlns="http://www.w3.org/2000/svg">
<path fill-rule="evenodd" clip-rule="evenodd" d="M11.52 13.7435V16.1152C11.52 16.2712 11.4933 16.4208 11.4441 16.5599H12.5576C13.7857 16.5599 14.7812 15.5644 14.7812 14.3364V7.53409L15.8224 8.4452C16.0073 8.60694 16.2882 8.58821 16.45 8.40337C16.6117 8.21853 16.593 7.93759 16.4081 7.77585L9.29284 1.54997C9.12518 1.40326 8.87483 1.40326 8.70716 1.54997L1.59187 7.77585C1.40704 7.93759 1.38831 8.21853 1.55004 8.40337C1.71177 8.58821 1.99272 8.60694 2.17755 8.4452L3.21883 7.53409V14.3364C3.21883 15.5644 4.21434 16.5599 5.44236 16.5599H6.55592C6.50675 16.4208 6.48 16.2712 6.48 16.1152V13.7435C6.48 12.5154 7.60257 11.5199 8.83059 11.5199H9.16941C10.3974 11.5199 11.52 12.5154 11.52 13.7435ZM7.2 13.7519C7.2 12.9169 7.87695 12.2399 8.712 12.2399H9.288C10.1231 12.2399 10.8 12.9169 10.8 13.7519V16.0559C10.8 16.3343 10.5744 16.5599 10.296 16.5599H7.704C7.42565 16.5599 7.2 16.3343 7.2 16.0559V13.7519Z" fill="#919EAB"/>
</svg>
