<svg width="127" height="32" viewBox="0 0 127 32" fill="none" xmlns="http://www.w3.org/2000/svg">
<path fill-rule="evenodd" clip-rule="evenodd" d="M2.59726 0.777594C-0.0653961 2.38508 0.00249604 1.98793 0.000131633 15.9595C-0.00223277 27.9961 0.0197225 28.4192 0.707426 29.5285C1.09755 30.1584 2.00346 30.9719 2.72055 31.3367C3.94565 31.9599 4.75461 32 16.1473 32C28.198 32 28.2774 31.9953 29.4103 31.234C30.0372 30.8129 30.8958 29.9566 31.318 29.3314C32.0817 28.2012 32.0861 28.1265 32.0861 15.9992C32.0861 3.87198 32.0817 3.79719 31.318 2.66703C30.8958 2.04182 30.0372 1.18553 29.4103 0.764457C28.277 0.0028198 28.2021 -0.00155936 16.0764 0.000124934C3.94632 0.00180923 3.87539 0.00585155 2.59726 0.777594ZM41.3748 8.14435C40.2848 8.78169 39.8771 9.51604 39.8657 10.8621C39.8569 11.8973 39.7329 12.1253 39.1793 12.1253C38.7429 12.1253 38.5038 12.35 38.5038 12.7597C38.5038 13.111 38.8054 13.4728 39.1793 13.5705C39.8116 13.7352 39.8549 14.0299 39.8549 18.1571V22.568H40.6993H41.5437V18.0204V13.4728H43.0637C44.3584 13.4728 44.5837 13.3731 44.5837 12.7991C44.5837 12.2251 44.3584 12.1253 43.0637 12.1253C41.6241 12.1253 41.5437 12.0755 41.5437 11.1821C41.5437 9.93644 42.1064 9.43048 43.4927 9.43048C44.4796 9.43048 44.6164 9.32976 44.5229 8.67255C44.4371 8.07126 44.1706 7.89744 43.2326 7.83209C42.5824 7.78661 41.7464 7.92708 41.3748 8.14435ZM111.306 9.00334C110.835 9.69491 110.449 10.3771 110.449 10.5192C110.449 11.173 111.774 10.6681 112.784 9.6299C113.865 8.51692 113.878 8.47077 113.209 8.11404C112.253 7.60336 112.263 7.59831 111.306 9.00334ZM13.5086 13.1693C13.5086 17.1641 13.3911 18.5028 12.9604 19.4079C10.7095 24.1381 3.37549 22.4322 3.37549 17.1782C3.37549 13.0931 8.07727 10.718 11.4388 13.1053L12.4953 13.8555V10.9693C12.4953 8.62842 12.5909 8.08305 13.002 8.08305C13.4299 8.08305 13.5086 8.87264 13.5086 13.1693ZM102.23 8.30773C102.106 8.43102 102.005 8.88578 102.005 9.31831C102.005 9.9671 102.182 10.1042 103.018 10.1042C103.919 10.1042 104.032 9.99202 104.032 9.09362C104.032 8.25956 103.894 8.08305 103.243 8.08305C102.81 8.08305 102.354 8.1841 102.23 8.30773ZM48.468 12.0304C48.0965 12.1203 47.2983 12.5653 46.6944 13.0194C43.6906 15.2767 43.8676 19.9735 47.0295 21.8959C48.5528 22.8226 51.381 22.8054 52.9141 21.8602C55.3123 20.3821 56.124 16.4422 54.4908 14.2058C53.2404 12.4929 50.5578 11.5241 48.468 12.0304ZM61.1345 12.1661C60.67 12.35 59.8719 12.8994 59.3612 13.3865L58.4323 14.2725V13.1989C58.4323 12.2753 58.3131 12.1253 57.5791 12.1253H56.7259L56.8191 17.2624C56.9106 22.3012 56.9269 22.4016 57.6723 22.5073C58.3965 22.6097 58.4323 22.5067 58.4343 20.3177C58.4353 19.0542 58.5917 17.4615 58.7819 16.7787C59.1859 15.3279 60.8339 13.8096 62.0049 13.8096C62.6892 13.8096 62.8233 13.6439 62.8233 12.7991C62.8233 11.7228 62.5298 11.6126 61.1345 12.1661ZM66.7922 12.4063C65.8001 12.9207 65.5255 12.9614 65.5255 12.5943C65.5255 12.3187 65.1776 12.1253 64.6811 12.1253H63.8367V17.3467V22.568H64.6811H65.5255V19.1825C65.5255 15.3895 66.0048 13.9562 67.3893 13.6095C69.9733 12.9628 70.9299 14.5218 70.9299 19.3803C70.9299 22.542 70.9471 22.6124 71.6898 22.5073C72.4154 22.4046 72.4576 22.2257 72.6187 18.5789C72.7738 15.0739 72.8535 14.705 73.5851 14.1155C74.6592 13.2498 76.0549 13.3013 76.9388 14.2395C77.5708 14.9105 77.6728 15.4673 77.7576 18.7028C77.8501 22.2463 77.8856 22.4039 78.6142 22.5073C79.3677 22.6138 79.3742 22.5787 79.3742 18.3859C79.3742 14.1896 79.3667 14.1485 78.3885 13.0571C77.5245 12.0927 77.1945 11.9569 75.7147 11.9569C74.4738 11.9569 73.7428 12.1661 72.9558 12.7465L71.8851 13.5358L71.118 12.8173C70.0057 11.775 68.3175 11.6147 66.7922 12.4063ZM94.2233 12.5464C92.553 13.3862 91.1962 15.5226 91.1962 17.3116C91.1962 18.8194 92.4547 21.1087 93.7089 21.8814C95.3714 22.9062 98.0941 22.823 99.7567 21.6962C100.971 20.8736 101.011 20.79 100.484 20.2086C99.9445 19.6144 99.8813 19.6225 98.6849 20.435C96.6221 21.836 94.3831 21.0669 93.3353 18.5974C92.7607 17.2432 93.1911 15.2581 94.2702 14.2843C95.2545 13.3956 97.9516 13.4004 98.9399 14.2924C99.6107 14.898 99.7006 14.9044 100.219 14.387C100.738 13.8696 100.734 13.7827 100.158 13.1484C99.5351 12.4615 97.6963 11.7939 96.4188 11.7905C96.0402 11.7895 95.0522 12.1297 94.2233 12.5464ZM109.222 12.155C108.641 12.3231 107.615 13.0679 106.942 13.81C105.836 15.0311 105.72 15.3427 105.722 17.095C105.724 20.4575 107.713 22.5643 110.888 22.5666C112.791 22.5683 114.09 21.9744 115.286 20.5573C117.379 18.0773 116.48 14.0444 113.502 12.5464C111.908 11.745 110.946 11.6568 109.222 12.155ZM120.799 12.6205C119.633 13.4095 119.569 13.4182 119.569 12.789C119.569 12.3056 119.34 12.1253 118.725 12.1253H117.88V17.3467V22.568H118.725H119.569V19.005C119.569 15.5162 119.59 15.4215 120.556 14.4574C121.816 13.2009 123.32 13.1406 124.482 14.2998C125.262 15.0776 125.311 15.3461 125.311 18.8474V22.568H126.156H127V18.6772C127 14.1859 126.598 13.0197 124.793 12.2672C123.158 11.5857 122.203 11.6703 120.799 12.6205ZM20.664 12.917L21.8337 13.7086L22.7565 12.917C24.1961 11.682 26.1082 11.8229 27.56 13.2707L28.7084 14.416V18.3235C28.7084 21.5722 28.6229 22.2311 28.2017 22.2311C27.7819 22.2311 27.6951 21.5931 27.6951 18.5105C27.6951 15.0092 27.6461 14.7407 26.8658 13.9629C25.7691 12.8688 24.2167 12.8688 23.1199 13.9629C22.3397 14.7407 22.2907 15.0092 22.2907 18.5105C22.2907 21.4893 22.1958 22.2311 21.8138 22.2311C21.4389 22.2311 21.3129 21.4334 21.2227 18.4957C21.1122 14.8835 21.0774 14.7336 20.1607 13.9481C18.9583 12.9176 17.8544 12.9176 16.6519 13.9481C15.7352 14.7336 15.7004 14.8835 15.59 18.4957C15.4998 21.4334 15.3738 22.2311 14.9989 22.2311C14.295 22.2311 14.3233 15.5071 15.033 14.1384C16.0764 12.126 18.6657 11.5645 20.664 12.917ZM82.4736 12.4821C81.9794 12.6795 81.7328 13.015 81.8085 13.3869C81.9328 14 82.0899 14.0124 84.7785 13.6257C86.0357 13.4448 86.4593 13.5334 87.2274 14.1381C87.7381 14.5403 88.1562 15.1611 88.1562 15.5185C88.1562 16.0983 87.9012 16.1677 85.7749 16.1677C82.2057 16.1677 80.7253 17.1563 80.7253 19.5399C80.7253 20.2608 81.0401 20.9126 81.7126 21.5833C82.5472 22.4154 82.9681 22.568 84.4316 22.568C85.3838 22.568 86.5967 22.3443 87.1267 22.0711C87.9762 21.6328 88.113 21.6328 88.2815 22.0711C88.3866 22.3443 88.7814 22.568 89.1591 22.568C89.8086 22.568 89.8451 22.3632 89.8451 18.7099C89.8451 14.4456 89.5303 13.339 88.1073 12.6054C87.071 12.0708 83.6868 11.9967 82.4736 12.4821ZM102.343 17.3702V22.6148L103.103 22.5073C103.848 22.4016 103.864 22.3012 103.956 17.2624L104.049 12.1253H103.196H102.343V17.3702ZM6.33538 13.6631C3.75683 15.0584 3.79905 19.3658 6.40429 20.7095C9.17874 22.1402 12.4953 20.2174 12.4953 17.1782C12.4953 14.1334 9.07404 12.1813 6.33538 13.6631ZM51.912 14.1317C53.9612 15.3781 54.1622 19.0427 52.2538 20.3757C49.4249 22.3517 45.9189 20.1577 46.3833 16.7022C46.7528 13.9552 49.5117 12.6721 51.912 14.1317ZM112.783 13.9622C114.751 14.9772 115.17 18.113 113.574 19.8795C111.212 22.4922 107.38 20.7435 107.421 17.0721C107.453 14.229 110.205 12.6327 112.783 13.9622ZM87.5229 17.5151C88.5666 17.5151 88.3849 19.6447 87.2662 20.5222C86.0911 21.4442 84.002 21.4567 83.0897 20.5468C82.281 19.7404 82.2452 19.2529 82.9238 18.2868C83.4933 17.476 84.4691 17.1806 85.9185 17.381C86.4525 17.4548 87.1747 17.5151 87.5229 17.5151Z" fill="white"/>
</svg>
