<svg width="32" height="26" viewBox="0 0 32 26" fill="none" xmlns="http://www.w3.org/2000/svg">
<path fill-rule="evenodd" clip-rule="evenodd" d="M5.72479 0.325623C4.14123 1.05218 3.26389 2.3806 3.26389 4.05206C3.26389 7.00056 6.25975 8.97262 8.84898 7.72842C10.3734 6.99585 11.2041 5.69897 11.2041 4.05206C11.2041 2.40515 10.3734 1.10827 8.84898 0.375696C7.84411 -0.107158 6.70755 -0.125367 5.72479 0.325623ZM24.1495 0.325623C22.5659 1.05218 21.6886 2.3806 21.6886 4.05206C21.6886 7.00056 24.6844 8.97262 27.2737 7.72842C28.7981 6.99585 29.6288 5.69897 29.6288 4.05206C29.6288 2.40515 28.7981 1.10827 27.2737 0.375696C26.2688 -0.107158 25.1322 -0.125367 24.1495 0.325623ZM8.28246 1.9792C10.0024 2.87402 9.99884 5.22327 8.27637 6.13419C6.68352 6.9765 4.9258 5.90186 4.92436 4.08457C4.9234 2.96458 5.52452 2.06764 6.46867 1.78053C7.2079 1.55568 7.5381 1.59194 8.28246 1.9792ZM26.7071 1.9792C28.4271 2.87402 28.4235 5.22327 26.7011 6.13419C25.1082 6.9765 23.3505 5.90186 23.349 4.08457C23.3481 2.96458 23.9492 2.06764 24.8934 1.78053C25.6326 1.55568 25.9628 1.59194 26.7071 1.9792ZM14.5182 6.70516C11.9168 7.69281 10.5511 10.7828 11.6309 13.2377C12.0557 14.2034 13.0871 15.3294 13.9712 15.7926C15.537 16.6131 17.7753 16.2793 19.1565 15.0192C20.2942 13.9811 20.8132 12.8452 20.8132 11.3929C20.8132 9.50165 19.8319 7.89002 18.1515 7.0217C17.1716 6.51543 15.42 6.36277 14.5182 6.70516ZM17.5953 8.6117C17.9396 8.79005 18.4196 9.2399 18.662 9.61172C19.0317 10.1788 19.1027 10.4613 19.1027 11.368C19.1027 12.2747 19.0317 12.5573 18.662 13.1244C18.0969 13.9907 17.1177 14.5155 16.0545 14.5219C14.9604 14.5284 14.1021 14.0543 13.4551 13.086C13.0226 12.4386 12.9345 12.1541 12.9345 11.4046C12.9345 8.90272 15.3551 7.45204 17.5953 8.6117ZM1.97849 10.8397C1.75307 11.4433 1.21571 12.8881 0.784411 14.0506L0 16.1641L0.719203 16.2145C1.11477 16.2421 1.52396 16.2315 1.62858 16.1907C1.73336 16.1499 2.20888 15.0481 2.68552 13.7423L3.55212 11.368H6.64106H9.73016V10.8124C9.73016 10.5067 9.7739 10.1409 9.82741 9.99946C9.91441 9.76942 9.52669 9.74226 6.15641 9.74226H2.38832L1.97849 10.8397ZM22.2862 10.1081C22.3392 10.3092 22.3838 10.6735 22.3849 10.9174L22.3871 11.361L25.4672 11.4051L28.5474 11.4493L29.4302 13.8473L30.3131 16.2454H31.1565C31.6205 16.2454 32 16.2013 32 16.1475C32 16.0935 31.4835 14.6303 30.8521 12.8959L29.7043 9.74226H25.9469H22.1896L22.2862 10.1081ZM8.54553 18.7247C8.41015 19.194 7.87503 21.023 7.35642 22.7891L6.41355 26H16.0026C21.2763 26 25.5914 25.9481 25.5914 25.8847C25.5914 25.8212 25.0706 23.9922 24.434 21.8203L23.2765 17.8711H16.034H8.79162L8.54553 18.7247ZM22.7383 21.8949L23.4557 24.2929L19.8083 24.3365C17.8021 24.3606 14.4699 24.3606 12.4035 24.3365L8.64615 24.2929L8.93597 23.3175C9.09523 22.781 9.41566 21.7019 9.64781 20.9195L10.07 19.4969H16.0455H22.0209L22.7383 21.8949Z" fill="white"/>
</svg>
