<svg width="50" height="50" viewBox="0 0 50 50" fill="none" xmlns="http://www.w3.org/2000/svg">
<path fill-rule="evenodd" clip-rule="evenodd" d="M20.7058 0.203223C15.2971 1.23152 10.7544 3.64703 6.97036 7.50681C3.77527 10.7657 1.73927 14.4415 0.498364 19.1909C0.0298184 20.9843 0 21.3315 0 25.0036C0 28.7057 0.0267274 29.0118 0.514909 30.8825C3.036 40.5466 10.32 47.5781 19.9651 49.6585C22.0756 50.1138 27.9244 50.1138 30.0349 49.6585C34.7598 48.6394 38.8311 46.4964 42.3131 43.1955C45.8751 39.8189 48.1911 35.8429 49.4851 30.8825C49.9733 29.0118 50 28.7057 50 25.0036C50 21.3015 49.9733 20.9954 49.4851 19.1246C48.1911 14.1643 45.8751 10.1883 42.3131 6.81165C38.8836 3.56075 34.9084 1.44913 30.1818 0.367793C28.4367 -0.0314625 22.4842 -0.134819 20.7058 0.203223ZM29.7273 3.72786C33.828 4.66479 37.3669 6.62856 40.3798 9.63842C43.4675 12.7231 45.3831 16.239 46.3925 20.6735C46.8138 22.5241 46.8138 27.483 46.3925 29.3336C45.3831 33.7682 43.4675 37.2841 40.3798 40.3688C37.294 43.4516 33.636 45.4434 29.3636 46.3669C27.2165 46.8312 22.7835 46.8312 20.6364 46.3669C14.0453 44.9422 8.49527 40.6632 5.48036 34.6822C3.88418 31.5154 3.304 28.9355 3.304 25.0036C3.304 21.8179 3.48873 20.5969 4.36527 17.9885C6.13436 12.7233 10.2151 8.06028 15.2727 5.5247C17.4775 4.41939 19.6518 3.75983 22.5455 3.3188C23.7809 3.13043 28.2193 3.3831 29.7273 3.72786ZM18.2496 12.231C17.1411 12.9182 17.1818 12.4319 17.1818 25.0036C17.1818 37.6161 17.1384 37.1113 18.28 37.7849C19.4164 38.4555 19.5964 38.3678 26.1005 33.9725C29.4453 31.7123 33.2689 29.1298 34.5978 28.2338C35.9265 27.3379 37.152 26.3939 37.3209 26.1363C37.4898 25.8788 37.6282 25.3691 37.6282 25.0036C37.6282 24.6381 37.4898 24.1284 37.3209 23.8709C37.152 23.6133 35.9265 22.6693 34.5978 21.7734C33.2689 20.8773 29.4453 18.2949 26.1005 16.0347C19.5773 11.6265 19.3793 11.5306 18.2496 12.231Z" fill="white"/>
</svg>
