<svg width="47" height="54" viewBox="0 0 47 54" fill="none" xmlns="http://www.w3.org/2000/svg">
<path fill-rule="evenodd" clip-rule="evenodd" d="M21.8537 0.18414C18.6645 0.818154 16.0556 3.48064 15.4329 6.73652C15.0764 8.60072 15.2945 10.1403 16.1646 11.9011C17.1384 13.8716 18.93 15.4351 20.986 16.1089C22.3921 16.5697 24.6073 16.5697 26.0134 16.1089C29.9043 14.8339 32.3571 10.7114 31.5769 6.7581C30.9154 3.40737 28.3318 0.804965 25.0416 0.175213C23.8081 -0.0608603 23.0761 -0.0588617 21.8537 0.18414ZM25.5488 2.13015C29.4272 3.41883 31.1241 8.04118 29.0308 11.6148C28.8432 11.9349 28.3332 12.5371 27.8974 12.9529C25.4119 15.325 21.5875 15.325 19.1019 12.9529C17.5106 11.4344 16.8206 9.47961 17.1204 7.33816C17.678 3.35488 21.7191 0.857855 25.5488 2.13015ZM10.1828 18.5724C8.76073 18.9461 7.53172 19.6654 6.45705 20.7532C5.55563 21.6655 5.20593 22.2003 2.9655 26.0932C1.596 28.4725 0.369779 30.6591 0.240606 30.9522C0.0685522 31.3424 0.00423161 31.8437 0.000502891 32.8242C-0.00429118 34.1101 0.0155511 34.2039 0.499486 35.1837C0.986483 36.1695 1.1628 36.3535 5.72635 40.6377L10.4492 45.0716V46.2385V47.4054H9.86962C9.16982 47.4054 8.51796 47.804 8.12591 48.4716C7.74172 49.1259 7.74931 51.0653 8.13936 51.9365C8.46163 52.656 9.0814 53.3038 9.83207 53.7054L10.3826 54H23.4997H36.6168L37.1673 53.7054C37.918 53.3038 38.5377 52.656 38.86 51.9365C39.2501 51.0653 39.2577 49.1259 38.8735 48.4716C38.4814 47.804 37.8296 47.4054 37.1298 47.4054H36.5502L36.5509 46.2397L36.5515 45.074L41.2749 40.6367C45.8337 36.3539 46.0157 36.1638 46.5011 35.1814C46.9782 34.2155 47.0037 34.0987 46.9997 32.891C46.9969 32.0699 46.9214 31.4223 46.7869 31.0658C46.6722 30.7621 45.4457 28.5455 44.0613 26.1402C41.7936 22.2007 41.4447 21.6666 40.5423 20.7532C39.8024 20.0043 39.2803 19.6121 38.5448 19.2527C36.801 18.4007 36.4923 18.3625 31.3493 18.3625C26.0523 18.3625 26.5508 18.2332 25.9215 19.7697L25.5429 20.6939H23.5121H21.4814L21.0844 19.7632C20.4304 18.2294 20.9506 18.3611 15.5888 18.3713C11.9638 18.3781 10.7509 18.4232 10.1828 18.5724ZM19.6397 20.8599C20.0003 21.7307 20.0004 21.8073 19.641 23.6248C19.4962 24.3576 19.3471 25.1369 19.3098 25.3568C19.2725 25.5766 19.1564 26.2007 19.0517 26.7436C18.8506 27.7877 18.9223 28.2556 19.3055 28.4028C19.6844 28.5481 20.2641 28.4958 20.4252 28.3017C20.5101 28.1995 20.7572 27.1653 20.9745 26.0036C21.1917 24.8418 21.4336 23.5765 21.5119 23.1919L21.6542 22.4924H23.5091C24.5293 22.4924 25.364 22.518 25.364 22.5492C25.364 22.5805 25.4791 23.1951 25.6197 23.9147C25.7604 24.6345 25.9778 25.7931 26.103 26.4892C26.3583 27.9088 26.5936 28.4802 26.9322 28.5029C28.1678 28.5855 28.238 28.1802 27.5812 24.7572C27.3913 23.7681 27.1837 22.6825 27.1199 22.3451C27.0215 21.8259 27.0553 21.6057 27.3393 20.9129L27.6749 20.0944H31.5733C33.9286 20.0944 35.7511 20.1531 36.1775 20.2429C37.6096 20.5442 38.9247 21.3626 39.793 22.4924C40.4976 23.4094 44.9276 31.133 45.1651 31.8586C45.4278 32.6609 45.3285 33.6484 44.9017 34.4789C44.6158 35.0354 41.6539 37.9581 37.7246 41.5612L36.5686 42.6214L36.5662 39.7763L36.5639 36.9313L37.8554 35.922C39.4936 34.6417 39.8596 34.276 40.1619 33.6167C40.4847 32.9127 40.4884 31.6938 40.1696 31.0457C39.8348 30.3651 37.6339 26.89 37.3049 26.5225C37.1465 26.3457 36.8821 26.2227 36.6602 26.2227C36.2342 26.2227 35.7512 26.6346 35.7512 26.9979C35.7512 27.1312 36.4093 28.2853 37.2136 29.5625C39.0639 32.5004 39.0811 32.6893 37.608 33.8801C37.1073 34.2847 36.6645 34.6159 36.6239 34.6159C36.5834 34.6159 36.5502 33.9785 36.5502 33.1994C36.5502 31.577 36.371 31.1272 35.5115 30.5925L35.0188 30.2861H23.4997H11.9806L11.4879 30.5925C10.6324 31.1247 10.4442 31.5891 10.4293 33.205C10.4221 33.9809 10.3904 34.6159 10.359 34.6159C10.2157 34.6159 8.46749 33.1176 8.39731 32.9346C8.15455 32.3015 8.33832 31.8564 9.78426 29.5741C10.5894 28.3031 11.2482 27.1492 11.2482 27.0095C11.2482 26.6283 10.7681 26.2227 10.3168 26.2227C9.84459 26.2227 9.67853 26.4317 7.88075 29.2869C6.68583 31.1845 6.66346 31.2353 6.61232 32.1633C6.52962 33.6657 6.83338 34.1163 9.14985 35.9265L10.4472 36.9403L10.4433 39.7972L10.4396 42.6539L9.945 42.1889C4.09024 36.6835 2.666 35.3195 2.37929 34.9436C1.71172 34.0678 1.50384 32.8199 1.85408 31.7895C2.08819 31.1009 6.55026 23.3532 7.22769 22.4594C7.71283 21.819 8.90002 20.8947 9.60062 20.6118C10.6728 20.1789 11.3731 20.1169 15.3186 20.1057L19.3225 20.0944L19.6397 20.8599ZM34.6526 32.1464C34.8897 32.2362 34.8961 47.0085 34.6592 47.2455C34.4086 47.4963 12.5371 47.4751 12.3287 47.2238C12.2198 47.0924 12.1877 44.9848 12.2126 39.5967L12.2469 32.1512L15.3764 32.0846C19.07 32.006 34.4115 32.0551 34.6526 32.1464ZM22.5009 35.5319C21.3173 35.8462 20.2765 36.6997 19.673 37.8509C19.3597 38.4486 19.3083 38.7048 19.3067 39.6784C19.3051 40.6519 19.3573 40.9176 19.6786 41.572C21.2196 44.7115 25.7798 44.7115 27.3208 41.572C27.642 40.9176 27.6942 40.6519 27.6926 39.6784C27.691 38.7048 27.6396 38.4486 27.3264 37.8509C26.5732 36.4142 25.3116 35.5687 23.7863 35.4782C23.2991 35.4494 22.7207 35.4736 22.5009 35.5319ZM24.8699 37.6282C26.5094 38.697 26.3029 41.1417 24.5039 41.9592C22.3511 42.9376 20.2118 40.5894 21.3137 38.4575C21.5372 38.0251 22.2676 37.4421 22.7919 37.2775C23.358 37.1 24.3044 37.2597 24.8699 37.6282ZM37.3492 50.1168C37.3492 51.2834 37.0244 51.9039 36.2792 52.1607C35.6159 52.3892 11.3835 52.3892 10.7202 52.1607C9.97496 51.9039 9.65016 51.2834 9.65016 50.1168V49.1373H23.4997H37.3492V50.1168Z" fill="white"/>
</svg>
