<svg
        width="167"
        height="167"
        viewBox="0 0 167 167"
        fill="none"
        xmlns="http://www.w3.org/2000/svg"
      >
        <path
          d="M162.275 83.5096C164.843 83.5096 166.939 85.5934 166.795 88.1577C165.966 103.023 161.17 117.427 152.867 129.853C143.701 143.571 130.673 154.262 115.431 160.576C100.189 166.889 83.4166 168.541 67.2355 165.323C51.0544 162.104 36.1911 154.159 24.5252 142.494C12.8593 130.828 4.91469 115.964 1.69607 99.7832C-1.52255 83.6022 0.129367 66.83 6.44292 51.5877C12.7565 36.3455 23.4481 23.3177 37.1658 14.1519C49.592 5.84893 63.9957 1.05279 78.861 0.223319C81.4254 0.0802283 83.5091 2.17582 83.5091 4.74419V4.74419C83.5091 7.31255 81.4248 9.37942 78.8615 9.54045C65.8372 10.3587 53.2294 14.6045 42.333 21.8853C30.1449 30.0291 20.6454 41.6043 15.0358 55.147C9.42621 68.6898 7.95849 83.5918 10.8182 97.9687C13.678 112.346 20.7367 125.552 31.1019 135.917C41.4671 146.282 54.6731 153.341 69.05 156.201C83.4269 159.06 98.329 157.593 111.872 151.983C125.414 146.373 136.99 136.874 145.134 124.686C152.414 113.789 156.66 101.182 157.478 88.1572C157.639 85.5939 159.706 83.5096 162.275 83.5096V83.5096Z"
          fill="#D6E040"></path>
        <path
          d="M61.9339 29.3796C61.1273 27.3559 62.1109 25.0487 64.1816 24.3719C74.5811 20.9729 85.718 20.3694 96.4645 22.6573C108.5 25.2195 119.505 31.2932 128.089 40.1102C136.673 48.9271 142.449 60.0915 144.688 72.1913C146.926 84.2912 145.527 96.7832 140.666 108.088C135.805 119.392 127.701 129.001 117.378 135.7C107.056 142.398 94.9795 145.885 82.6754 145.72C70.3713 145.555 58.3924 141.746 48.2536 134.773C39.2006 128.546 31.9777 120.048 27.2909 110.162C26.3577 108.193 27.3557 105.892 29.3794 105.086V105.086C31.403 104.279 33.6845 105.273 34.6357 107.233C38.7325 115.673 44.9569 122.931 52.724 128.273C61.5773 134.361 72.0372 137.688 82.7812 137.832C93.5251 137.976 104.07 134.931 113.084 129.082C122.097 123.233 129.174 114.842 133.418 104.971C137.663 95.1001 138.885 84.1921 136.93 73.6265C134.976 63.0609 129.932 53.3122 122.436 45.6132C114.941 37.9142 105.331 32.6107 94.8218 30.3734C85.6017 28.4105 76.0526 28.885 67.1084 31.7174C65.0316 32.3751 62.7405 31.4033 61.9339 29.3796V29.3796Z"
          fill="#C77EB5"></path>
      </svg>