<svg width="1440" height="837" viewBox="0 0 1440 837" fill="none" xmlns="http://www.w3.org/2000/svg">
<path opacity="0.03" d="M0 0H1440V837H0V0Z" fill="#2B59FF"/>
<path opacity="0.1" d="M0.995453 481.349C20.1853 481.217 38.5367 473.467 52.0126 459.804C65.4885 446.142 72.985 427.686 72.853 408.496C72.721 389.306 64.9713 370.955 51.3087 357.479C37.6461 344.003 19.1898 336.506 0 336.638L0.995453 481.349Z" fill="#9EA5AC"/>
<path opacity="0.1" d="M1147.55 834.818C1147.55 812.123 1143.07 789.651 1134.37 768.683C1125.66 747.716 1112.89 728.665 1096.8 712.617C1080.71 696.57 1061.61 683.84 1040.59 675.155C1019.56 666.47 997.033 662 974.277 662C951.522 662 928.99 666.47 907.967 675.155C886.944 683.84 867.842 696.57 851.752 712.617C835.661 728.665 822.898 747.716 814.19 768.683C805.482 789.651 801 812.123 801 834.818H1147.55Z" fill="#9EA5AC"/>
</svg>
