<svg width="1440" height="485" viewBox="0 0 1440 485" fill="none" xmlns="http://www.w3.org/2000/svg">
<rect opacity="0.93" width="1440" height="485" fill="#D6E040"/>
<g opacity="0.3">
<path d="M1277.46 0C1277.46 21.3451 1281.66 42.4813 1289.83 62.2016C1298 81.9219 1309.97 99.8403 1325.07 114.934C1340.16 130.027 1358.08 141.999 1377.8 150.168C1397.52 158.336 1418.65 162.541 1440 162.541L1440 1.42097e-05L1277.46 0Z" fill="white"/>
<path d="M117.308 214.235C93.5784 214.235 70.8209 223.662 54.0416 240.441C37.2624 257.22 27.8359 279.978 27.8359 303.707C27.8359 327.437 37.2624 350.194 54.0416 366.973C70.8209 383.753 93.5784 393.179 117.308 393.179L117.308 214.235Z" fill="white"/>
<path d="M117 392.944C140.729 392.944 163.487 383.517 180.266 366.738C197.045 349.959 206.472 327.201 206.472 303.472C206.472 279.742 197.045 256.985 180.266 240.206C163.487 223.426 140.729 214 117 214L117 392.944Z" fill="white"/>
<path d="M29.824 114.822C29.824 123.058 23.1476 129.734 14.912 129.734C6.67632 129.734 0 123.058 0 114.822C0 106.587 6.67632 99.9103 14.912 99.9103C23.1476 99.9103 29.824 106.587 29.824 114.822Z" fill="white"/>
</g>
</svg>
