<svg width="37" height="37" viewBox="0 0 37 37" fill="none" xmlns="http://www.w3.org/2000/svg">
<path d="M8.57734 14.7778C9.33186 15.1178 10.1512 15.2898 10.9788 15.2821C12.2123 15.2644 13.4171 14.9071 14.4608 14.2495C14.6374 14.1287 14.7785 13.963 14.8696 13.7694C14.9606 13.5758 14.9983 13.3614 14.9787 13.1484C14.9591 12.9354 14.883 12.7314 14.7581 12.5577C14.6333 12.384 14.4643 12.2468 14.2687 12.1602C13.7952 11.9634 13.3709 11.6643 13.0264 11.2845C12.6818 10.9046 12.4254 10.4534 12.2755 9.96294C12.2102 9.64449 12.0211 9.36502 11.7498 9.186C11.4784 9.00699 11.1471 8.94309 10.8287 9.00837C10.5102 9.07366 10.2307 9.26277 10.0517 9.5341C9.87271 9.80544 9.80882 10.1368 9.8741 10.4552C10.1073 11.3507 10.5567 12.1753 11.1829 12.8566C10.6228 12.9032 10.0602 12.8039 9.54991 12.5685C9.40565 12.5045 9.25019 12.4696 9.09243 12.4658C8.93467 12.4619 8.77771 12.4892 8.6305 12.5461C8.4833 12.603 8.34876 12.6883 8.23456 12.7972C8.12036 12.9061 8.02875 13.0365 7.96497 13.1808C7.89914 13.3257 7.86277 13.4823 7.85797 13.6413C7.85317 13.8004 7.88004 13.9588 7.93702 14.1074C7.994 14.256 8.07995 14.3918 8.18988 14.5069C8.2998 14.622 8.43151 14.714 8.57734 14.7778Z" fill="white"/>
<path d="M13.5608 26.4244C13.6739 26.5751 13.8208 26.6972 13.9898 26.7806C14.1587 26.864 14.345 26.9065 14.5334 26.9047C14.7543 26.903 14.9706 26.8405 15.1583 26.7238C15.3459 26.6072 15.4978 26.441 15.5971 26.2437C15.6964 26.0463 15.7393 25.8253 15.7211 25.6051C15.7029 25.3849 15.6243 25.1739 15.494 24.9955C14.8576 24.119 15.0137 22.1258 15.3018 20.8771C15.3018 20.733 15.3739 20.6009 15.3979 20.4689C15.4334 20.3151 15.4382 20.1559 15.4122 20.0003C15.3861 19.8447 15.3297 19.6957 15.246 19.5619C15.1624 19.4281 15.0533 19.3121 14.9248 19.2205C14.7963 19.1289 14.6511 19.0635 14.4974 19.028C14.3436 18.9925 14.1844 18.9877 14.0288 19.0137C13.8732 19.0398 13.7242 19.0963 13.5904 19.1799C13.4566 19.2635 13.3406 19.3727 13.249 19.5011C13.1574 19.6296 13.092 19.7748 13.0565 19.9286L12.9845 20.2047C12.7757 20.9928 12.3057 21.6867 11.6514 22.1731C10.9971 22.6595 10.1972 22.9095 9.38235 22.8823C9.0639 22.8823 8.7585 23.0088 8.53332 23.234C8.30814 23.4591 8.18164 23.7646 8.18164 24.083C8.18164 24.4014 8.30814 24.7069 8.53332 24.932C8.7585 25.1572 9.0639 25.2837 9.38235 25.2837C10.5681 25.292 11.7311 24.9585 12.7323 24.3231C12.8444 25.0776 13.1278 25.7964 13.5608 26.4244Z" fill="white"/>
<path d="M36.4822 17.5757C36.4767 16.7457 36.3074 15.9249 35.9839 15.1604C35.6604 14.396 35.1891 13.703 34.5971 13.1211C34.7656 12.5521 34.8506 11.9616 34.8492 11.3681C34.8483 9.80008 34.2575 8.28982 33.1941 7.13748C32.1307 5.98513 30.6727 5.27507 29.1098 5.14842C29.0641 4.92464 29.0039 4.70405 28.9297 4.48803C28.613 3.4478 28.0291 2.50878 27.2363 1.76461C26.4435 1.02043 25.4694 0.497116 24.4112 0.246847C23.353 -0.00342286 22.2477 0.0281002 21.2055 0.338272C20.1634 0.648444 19.2207 1.22642 18.4716 2.01457C17.7258 1.22892 16.7881 0.651239 15.7509 0.338512C14.7138 0.0257849 13.6131 -0.011187 12.5573 0.231243C11.5015 0.473673 10.5271 0.98713 9.73032 1.72097C8.9335 2.45481 8.34173 3.38369 8.01339 4.41599C7.93768 4.63884 7.88143 4.86783 7.84529 5.10039C6.27197 5.22479 4.80413 5.9404 3.73707 7.10325C2.67001 8.26609 2.08292 9.78989 2.0939 11.3681C2.09256 11.9616 2.17749 12.5521 2.34605 13.1211C1.75401 13.703 1.28272 14.396 0.959218 15.1604C0.635718 15.9249 0.466385 16.7457 0.460938 17.5757C0.461758 18.4037 0.62786 19.2231 0.949503 19.9859C1.27115 20.7488 1.74186 21.4398 2.33404 22.0184C2.17692 22.5773 2.09614 23.1548 2.0939 23.7354C2.09509 25.2856 2.6718 26.7801 3.71226 27.9293C4.75271 29.0784 6.18277 29.8003 7.72522 29.955C7.73499 30.5464 7.8321 31.1331 8.01339 31.6961C8.33009 32.7363 8.91397 33.6753 9.7068 34.4195C10.4996 35.1637 11.4737 35.687 12.5319 35.9373C13.5901 36.1875 14.6954 36.156 15.7376 35.8458C16.7798 35.5357 17.7224 34.9577 18.4716 34.1695C19.2173 34.9552 20.155 35.5329 21.1922 35.8456C22.2293 36.1583 23.3301 36.1953 24.3858 35.9529C25.4416 35.7104 26.416 35.197 27.2128 34.4631C28.0096 33.7293 28.6014 32.8004 28.9297 31.7681C29.134 31.1841 29.2513 30.5732 29.2779 29.955C30.8204 29.8003 32.2504 29.0784 33.2909 27.9293C34.3313 26.7801 34.9081 25.2856 34.9092 23.7354C34.907 23.1548 34.8262 22.5773 34.6691 22.0184C35.2504 21.4348 35.7101 20.7416 36.0213 19.9789C36.3326 19.2163 36.4892 18.3994 36.4822 17.5757ZM13.9689 33.7013C13.1464 33.7086 12.344 33.4477 11.6831 32.9581C11.0223 32.4684 10.5391 31.7766 10.3067 30.9877C10.187 30.6234 10.1262 30.2424 10.1266 29.859C10.1263 29.5714 10.1626 29.2849 10.2347 29.0065C10.2864 28.8094 10.2871 28.6023 10.2367 28.4049C10.1862 28.2074 10.0864 28.026 9.94653 27.8778C9.83458 27.7571 9.69899 27.6607 9.54821 27.5946C9.39742 27.5285 9.23465 27.4941 9.07001 27.4936H8.84188C8.67421 27.5105 8.50525 27.5105 8.33758 27.4936C7.31855 27.4936 6.34125 27.0888 5.62069 26.3682C4.90013 25.6477 4.49532 24.6704 4.49532 23.6513C4.49853 23.0967 4.61711 22.5487 4.84352 22.0424C4.95622 21.7899 4.97834 21.5063 4.90615 21.2394C4.83397 20.9725 4.67189 20.7387 4.44729 20.5775C3.96885 20.2339 3.57669 19.784 3.30166 19.2631C3.02664 18.7422 2.87625 18.1646 2.86235 17.5757C2.86974 16.9712 3.01923 16.377 3.29872 15.8409C3.57822 15.3049 3.9799 14.8421 4.4713 14.4899C4.69456 14.3248 4.85367 14.0873 4.92154 13.8181C4.98941 13.5488 4.96184 13.2643 4.84352 13.0131C4.56869 12.4255 4.4466 11.778 4.48858 11.1307C4.53056 10.4834 4.73524 9.85709 5.08366 9.30991C5.43208 8.76273 5.91297 8.31235 6.48177 8.00048C7.05058 7.68861 7.68889 7.52535 8.33758 7.52582C8.46545 7.51556 8.59394 7.51556 8.72181 7.52582C8.89165 7.55818 9.06648 7.55347 9.23433 7.51203C9.40219 7.47058 9.55912 7.39337 9.69438 7.28568C9.83309 7.17022 9.94398 7.02498 10.0188 6.86076C10.0936 6.69653 10.1305 6.51755 10.1266 6.33712C10.1237 5.92994 10.1844 5.5248 10.3067 5.13642C10.5348 4.43252 10.9613 3.80945 11.535 3.34209C12.1086 2.87472 12.805 2.58293 13.5405 2.50177C14.2759 2.42062 15.0192 2.55355 15.6809 2.8846C16.3427 3.21565 16.8948 3.73073 17.2708 4.36796V31.8041C16.9365 32.3833 16.455 32.8638 15.8751 33.1969C15.2953 33.5301 14.6376 33.7041 13.9689 33.7013ZM32.4958 20.6616C32.2712 20.8228 32.1091 21.0566 32.037 21.3235C31.9648 21.5904 31.9869 21.874 32.0996 22.1264C32.326 22.6328 32.4446 23.1807 32.4478 23.7354C32.4478 24.7544 32.043 25.7317 31.3224 26.4523C30.6019 27.1728 29.6246 27.5776 28.6055 27.5776C28.4379 27.5946 28.2689 27.5946 28.1012 27.5776C27.9017 27.5393 27.6956 27.5522 27.5024 27.6152C27.3092 27.6782 27.1352 27.7892 26.9966 27.9379C26.8567 28.0861 26.7569 28.2674 26.7065 28.4649C26.656 28.6624 26.6567 28.8694 26.7084 29.0665C26.7805 29.3449 26.8168 29.6314 26.8165 29.919C26.8195 30.3262 26.7587 30.7313 26.6364 31.1197C26.4154 31.8289 25.993 32.4584 25.4206 32.9318C24.8483 33.4052 24.1506 33.7019 23.4126 33.7859C22.6746 33.8699 21.9281 33.7375 21.264 33.4048C20.6 33.0721 20.0469 32.5535 19.6723 31.9122V4.36796C20.0498 3.72727 20.6056 3.21033 21.272 2.88022C21.9383 2.5501 22.6863 2.4211 23.4248 2.50895C24.1632 2.5968 24.8601 2.89769 25.4304 3.37493C26.0007 3.85216 26.4197 4.48508 26.6364 5.19645C26.7611 5.58428 26.8219 5.98981 26.8165 6.39716C26.8194 6.57248 26.8607 6.74502 26.9374 6.90268C27.0142 7.06033 27.1245 7.19926 27.2607 7.3097C27.3954 7.42326 27.5534 7.5058 27.7236 7.55145C27.8938 7.5971 28.0719 7.60475 28.2453 7.57385C28.3651 7.56213 28.4857 7.56213 28.6055 7.57385C29.2495 7.57616 29.8825 7.73976 30.447 8.04971C31.0114 8.35966 31.4892 8.80609 31.8366 9.34821C32.1841 9.89033 32.3902 10.5109 32.4362 11.1532C32.4821 11.7955 32.3664 12.439 32.0996 13.0251C31.9844 13.2749 31.9585 13.5568 32.0263 13.8234C32.0941 14.0901 32.2513 14.3254 32.4718 14.4899C32.9632 14.8421 33.3649 15.3049 33.6444 15.8409C33.9239 16.377 34.0734 16.9712 34.0808 17.5757C34.08 18.1789 33.9358 18.7732 33.6603 19.3097C33.3847 19.8462 32.9856 20.3096 32.4958 20.6616Z" fill="white"/>
<path d="M24.7029 9.97582C24.5507 10.4637 24.2933 10.9122 23.9489 11.2898C23.6045 11.6673 23.1815 11.9648 22.7097 12.1611C22.514 12.2476 22.3451 12.3849 22.2202 12.5586C22.0954 12.7323 22.0193 12.9362 21.9997 13.1493C21.9801 13.3623 22.0178 13.5767 22.1088 13.7703C22.1999 13.9638 22.341 14.1296 22.5176 14.2503C23.5613 14.908 24.7661 15.2653 25.9996 15.283C26.8272 15.2907 27.6465 15.1186 28.401 14.7787C28.6924 14.6481 28.92 14.4071 29.0337 14.1088C29.1474 13.8104 29.138 13.4791 29.0074 13.1877C28.8768 12.8963 28.6359 12.6688 28.3375 12.555C28.0391 12.4413 27.7078 12.4508 27.4165 12.5814C26.9058 12.8158 26.3435 12.915 25.7835 12.8695C26.4117 12.1896 26.8614 11.3645 27.0923 10.4681C27.156 10.1497 27.0905 9.81896 26.9104 9.54875C26.7303 9.27854 26.4501 9.09095 26.1317 9.02726C25.8133 8.96357 25.4825 9.029 25.2123 9.20914C24.9421 9.38928 24.7545 9.66938 24.6909 9.98783L24.7029 9.97582Z" fill="white"/>
<path d="M27.5733 22.8952C26.7601 22.9231 25.9614 22.6748 25.3073 22.1907C24.6532 21.7067 24.1823 21.0155 23.9712 20.2296C23.9712 20.0976 23.9112 19.9895 23.8992 19.9415C23.8275 19.623 23.6323 19.3461 23.3564 19.1716C23.0806 18.9971 22.7467 18.9393 22.4283 19.0109C22.1098 19.0826 21.8329 19.2778 21.6584 19.5536C21.4839 19.8295 21.4261 20.1633 21.4977 20.4818C21.4977 20.6139 21.5578 20.7459 21.5938 20.878C21.8459 22.0787 22.0621 24.1079 21.4017 25.0085C21.2713 25.1869 21.1927 25.3978 21.1745 25.618C21.1563 25.8382 21.1992 26.0592 21.2985 26.2566C21.3978 26.454 21.5497 26.6201 21.7374 26.7367C21.9251 26.8534 22.1413 26.9159 22.3623 26.9176C22.5507 26.9195 22.7369 26.877 22.9059 26.7935C23.0748 26.7101 23.2218 26.5881 23.3348 26.4373C23.7635 25.8083 24.0428 25.0895 24.1513 24.3361C25.1525 24.9714 26.3155 25.3049 27.5013 25.2966C27.8197 25.2966 28.1251 25.1701 28.3503 24.9449C28.5755 24.7198 28.702 24.4144 28.702 24.0959C28.702 23.7775 28.5755 23.4721 28.3503 23.2469C28.1251 23.0217 27.8197 22.8952 27.5013 22.8952H27.5733Z" fill="white"/>
</svg>
