<svg width="20" height="20" viewBox="0 0 20 20" fill="none" xmlns="http://www.w3.org/2000/svg">
<path fill-rule="evenodd" clip-rule="evenodd" d="M8.13602 6.40004C7.82584 6.71207 7.82584 7.21601 8.13602 7.52804L10.968 10.4L8.13602 13.232C7.82584 13.5441 7.82584 14.048 8.13602 14.36C8.28623 14.5115 8.49071 14.5967 8.70402 14.5967C8.91733 14.5967 9.1218 14.5115 9.27202 14.36L12.664 10.968C12.8155 10.8178 12.9007 10.6134 12.9007 10.4C12.9007 10.1867 12.8155 9.98225 12.664 9.83204L9.27202 6.40004C9.1218 6.24859 8.91733 6.1634 8.70402 6.1634C8.49071 6.1634 8.28623 6.24859 8.13602 6.40004Z" fill="#919EAB"/>
</svg>
