<svg width="146" height="224" viewBox="0 0 146 224" fill="none" xmlns="http://www.w3.org/2000/svg">
<mask id="mask0_394_8585" style="mask-type:alpha" maskUnits="userSpaceOnUse" x="0" y="0" width="224" height="224">
<rect x="224" y="224" width="224" height="224" transform="rotate(180 224 224)" fill="url(#paint0_linear_394_8585)"/>
</mask>
<g mask="url(#mask0_394_8585)">
<circle cx="140" cy="202" r="3" transform="rotate(180 140 202)" fill="#C77EB5"/>
<circle cx="122" cy="202" r="3" transform="rotate(180 122 202)" fill="#C77EB5"/>
<circle cx="104" cy="202" r="3" transform="rotate(180 104 202)" fill="#C77EB5"/>
<circle cx="86" cy="202" r="3" transform="rotate(180 86 202)" fill="#C77EB5"/>
<circle cx="68" cy="202" r="3" transform="rotate(180 68 202)" fill="#C77EB5"/>
<circle cx="50" cy="202" r="3" transform="rotate(180 50 202)" fill="#C77EB5"/>
<circle cx="32" cy="202" r="3" transform="rotate(180 32 202)" fill="#C77EB5"/>
<circle cx="14" cy="202" r="3" transform="rotate(180 14 202)" fill="#C77EB5"/>
<circle cx="140" cy="184" r="3" transform="rotate(180 140 184)" fill="#C77EB5"/>
<circle cx="122" cy="184" r="3" transform="rotate(180 122 184)" fill="#C77EB5"/>
<circle cx="104" cy="184" r="3" transform="rotate(180 104 184)" fill="#C77EB5"/>
<circle cx="86" cy="184" r="3" transform="rotate(180 86 184)" fill="#C77EB5"/>
<circle cx="68" cy="184" r="3" transform="rotate(180 68 184)" fill="#C77EB5"/>
<circle cx="50" cy="184" r="3" transform="rotate(180 50 184)" fill="#C77EB5"/>
<circle cx="32" cy="184" r="3" transform="rotate(180 32 184)" fill="#C77EB5"/>
<circle cx="14" cy="184" r="3" transform="rotate(180 14 184)" fill="#C77EB5"/>
<circle cx="140" cy="166" r="3" transform="rotate(180 140 166)" fill="#C77EB5"/>
<circle cx="122" cy="166" r="3" transform="rotate(180 122 166)" fill="#C77EB5"/>
<circle cx="104" cy="166" r="3" transform="rotate(180 104 166)" fill="#C77EB5"/>
<circle cx="86" cy="166" r="3" transform="rotate(180 86 166)" fill="#C77EB5"/>
<circle cx="68" cy="166" r="3" transform="rotate(180 68 166)" fill="#C77EB5"/>
<circle cx="50" cy="166" r="3" transform="rotate(180 50 166)" fill="#C77EB5"/>
<circle cx="32" cy="166" r="3" transform="rotate(180 32 166)" fill="#C77EB5"/>
<circle cx="14" cy="166" r="3" transform="rotate(180 14 166)" fill="#C77EB5"/>
<circle cx="140" cy="148" r="3" transform="rotate(180 140 148)" fill="#C77EB5"/>
<circle cx="122" cy="148" r="3" transform="rotate(180 122 148)" fill="#C77EB5"/>
<circle cx="104" cy="148" r="3" transform="rotate(180 104 148)" fill="#C77EB5"/>
<circle cx="86" cy="148" r="3" transform="rotate(180 86 148)" fill="#C77EB5"/>
<circle cx="68" cy="148" r="3" transform="rotate(180 68 148)" fill="#C77EB5"/>
<circle cx="50" cy="148" r="3" transform="rotate(180 50 148)" fill="#C77EB5"/>
<circle cx="32" cy="148" r="3" transform="rotate(180 32 148)" fill="#C77EB5"/>
<circle cx="14" cy="148" r="3" transform="rotate(180 14 148)" fill="#C77EB5"/>
<circle cx="140" cy="130" r="3" transform="rotate(180 140 130)" fill="#C77EB5"/>
<circle cx="122" cy="130" r="3" transform="rotate(180 122 130)" fill="#C77EB5"/>
<circle cx="104" cy="130" r="3" transform="rotate(180 104 130)" fill="#C77EB5"/>
<circle cx="86" cy="130" r="3" transform="rotate(180 86 130)" fill="#C77EB5"/>
<circle cx="68" cy="130" r="3" transform="rotate(180 68 130)" fill="#C77EB5"/>
<circle cx="50" cy="130" r="3" transform="rotate(180 50 130)" fill="#C77EB5"/>
<circle cx="32" cy="130" r="3" transform="rotate(180 32 130)" fill="#C77EB5"/>
<circle cx="14" cy="130" r="3" transform="rotate(180 14 130)" fill="#C77EB5"/>
<circle cx="140" cy="112" r="3" transform="rotate(180 140 112)" fill="#C77EB5"/>
<circle cx="122" cy="112" r="3" transform="rotate(180 122 112)" fill="#C77EB5"/>
<circle cx="104" cy="112" r="3" transform="rotate(180 104 112)" fill="#C77EB5"/>
<circle cx="86" cy="112" r="3" transform="rotate(180 86 112)" fill="#C77EB5"/>
<circle cx="68" cy="112" r="3" transform="rotate(180 68 112)" fill="#C77EB5"/>
<circle cx="50" cy="112" r="3" transform="rotate(180 50 112)" fill="#C77EB5"/>
<circle cx="32" cy="112" r="3" transform="rotate(180 32 112)" fill="#C77EB5"/>
<circle cx="14" cy="112" r="3" transform="rotate(180 14 112)" fill="#C77EB5"/>
<circle cx="140" cy="94" r="3" transform="rotate(180 140 94)" fill="#C77EB5"/>
<circle cx="122" cy="94" r="3" transform="rotate(180 122 94)" fill="#C77EB5"/>
<circle cx="104" cy="94" r="3" transform="rotate(180 104 94)" fill="#C77EB5"/>
<circle cx="86" cy="94" r="3" transform="rotate(180 86 94)" fill="#C77EB5"/>
<circle cx="68" cy="94" r="3" transform="rotate(180 68 94)" fill="#C77EB5"/>
<circle cx="50" cy="94" r="3" transform="rotate(180 50 94)" fill="#C77EB5"/>
<circle cx="32" cy="94" r="3" transform="rotate(180 32 94)" fill="#C77EB5"/>
<circle cx="14" cy="94" r="3" transform="rotate(180 14 94)" fill="#C77EB5"/>
<circle cx="140" cy="76" r="3" transform="rotate(180 140 76)" fill="#C77EB5"/>
<circle cx="122" cy="76" r="3" transform="rotate(180 122 76)" fill="#C77EB5"/>
<circle cx="104" cy="76" r="3" transform="rotate(180 104 76)" fill="#C77EB5"/>
<circle cx="86" cy="76" r="3" transform="rotate(180 86 76)" fill="#C77EB5"/>
<circle cx="68" cy="76" r="3" transform="rotate(180 68 76)" fill="#C77EB5"/>
<circle cx="50" cy="76" r="3" transform="rotate(180 50 76)" fill="#C77EB5"/>
<circle cx="32" cy="76" r="3" transform="rotate(180 32 76)" fill="#C77EB5"/>
<circle cx="14" cy="76" r="3" transform="rotate(180 14 76)" fill="#C77EB5"/>
<circle cx="140" cy="58" r="3" transform="rotate(180 140 58)" fill="#C77EB5"/>
<circle cx="122" cy="58" r="3" transform="rotate(180 122 58)" fill="#C77EB5"/>
<circle cx="104" cy="58" r="3" transform="rotate(180 104 58)" fill="#C77EB5"/>
<circle cx="86" cy="58" r="3" transform="rotate(180 86 58)" fill="#C77EB5"/>
<circle cx="68" cy="58" r="3" transform="rotate(180 68 58)" fill="#C77EB5"/>
<circle cx="50" cy="58" r="3" transform="rotate(180 50 58)" fill="#C77EB5"/>
<circle cx="32" cy="58" r="3" transform="rotate(180 32 58)" fill="#C77EB5"/>
<circle cx="14" cy="58" r="3" transform="rotate(180 14 58)" fill="#C77EB5"/>
<circle cx="140" cy="40" r="3" transform="rotate(180 140 40)" fill="#C77EB5"/>
<circle cx="122" cy="40" r="3" transform="rotate(180 122 40)" fill="#C77EB5"/>
<circle cx="104" cy="40" r="3" transform="rotate(180 104 40)" fill="#C77EB5"/>
<circle cx="86" cy="40" r="3" transform="rotate(180 86 40)" fill="#C77EB5"/>
<circle cx="68" cy="40" r="3" transform="rotate(180 68 40)" fill="#C77EB5"/>
<circle cx="50" cy="40" r="3" transform="rotate(180 50 40)" fill="#C77EB5"/>
<circle cx="32" cy="40" r="3" transform="rotate(180 32 40)" fill="#C77EB5"/>
<circle cx="14" cy="40" r="3" transform="rotate(180 14 40)" fill="#C77EB5"/>
<circle cx="140" cy="22" r="3" transform="rotate(180 140 22)" fill="#C77EB5"/>
<circle cx="122" cy="22" r="3" transform="rotate(180 122 22)" fill="#C77EB5"/>
<circle cx="104" cy="22" r="3" transform="rotate(180 104 22)" fill="#C77EB5"/>
<circle cx="86" cy="22" r="3" transform="rotate(180 86 22)" fill="#C77EB5"/>
<circle cx="68" cy="22" r="3" transform="rotate(180 68 22)" fill="#C77EB5"/>
<circle cx="50" cy="22" r="3" transform="rotate(180 50 22)" fill="#C77EB5"/>
<circle cx="32" cy="22" r="3" transform="rotate(180 32 22)" fill="#C77EB5"/>
<circle cx="14" cy="22" r="3" transform="rotate(180 14 22)" fill="#C77EB5"/>
</g>
<defs>
<linearGradient id="paint0_linear_394_8585" x1="224" y1="336" x2="448" y2="336" gradientUnits="userSpaceOnUse">
<stop stop-color="#FD4C5C"/>
<stop offset="0.942708" stop-color="#FD4C5C" stop-opacity="0.06"/>
</linearGradient>
</defs>
</svg>
