<svg width="51" height="51" viewBox="0 0 51 51" fill="none" xmlns="http://www.w3.org/2000/svg">
<path fill-rule="evenodd" clip-rule="evenodd" d="M22.6318 0.0770692C22.2481 0.126119 21.7698 0.18405 21.5689 0.205725C20.1336 0.36076 17.3427 1.14204 15.549 1.8911C11.5969 3.54135 7.79193 6.50857 5.16804 9.9865C4.30054 11.1364 3.74864 11.996 3.01765 13.3361C2.3224 14.6106 1.84498 15.6976 1.34357 17.1474C0.793269 18.7384 0.4115 20.3558 0.170229 22.1186C-0.0153748 23.4745 -0.0596835 26.7865 0.0895832 28.1503C0.545687 32.3182 2.04347 36.3501 4.4233 39.8161C6.92728 43.463 10.4427 46.481 14.4277 48.4048C17.6409 49.9559 20.5136 50.7031 24.2386 50.9565C28.1904 51.2254 32.9012 50.2362 36.7088 48.338C39.3501 47.0213 41.4218 45.531 43.5292 43.4319C47.1609 39.8143 49.4568 35.5803 50.5042 30.5697C50.9576 28.4006 51.1242 25.2374 50.9027 23.0079C50.3727 17.6747 48.303 12.7938 44.8904 8.8302C40.7438 4.01395 35.1542 0.968177 28.9425 0.140237C27.8115 -0.0104903 23.6424 -0.0522488 22.6318 0.0770692ZM33.1275 12.0073L33.1274 15.0595L31.0183 15.0602C29.1968 15.0608 28.876 15.0759 28.6646 15.171C28.1759 15.3908 28.0796 15.908 28.099 18.2079L28.1122 19.7656L30.6531 19.7829L33.194 19.8003L33.1939 20.0812C33.1938 20.2357 33.1216 21.1227 33.0333 22.0523C32.945 22.9819 32.8544 23.9812 32.8318 24.2728C32.8093 24.5644 32.7735 24.9597 32.7523 25.151L32.7137 25.499H30.4296H28.1454V33.7766V42.0543L27.9959 42.1001C27.9137 42.1254 26.3742 42.1627 24.5748 42.1832L21.3032 42.2203L21.2973 41.7308C21.2941 41.4616 21.2898 37.7589 21.2876 33.5027L21.2838 25.7642L21.1108 25.7614C20.9665 25.7593 17.9166 25.5778 17.8655 25.5684C17.8564 25.5667 17.8489 24.2719 17.8489 22.691V19.8168L19.5428 19.8324L21.2368 19.8481L21.2417 17.3544C21.2444 15.9828 21.2561 14.801 21.2678 14.7281C21.2795 14.6551 21.3072 14.4016 21.3296 14.1646C21.3885 13.5403 21.6173 12.6765 21.8652 12.143C22.7167 10.311 24.5274 9.2847 27.4147 8.99783C27.7252 8.96694 29.1377 8.94473 30.5535 8.94845L33.1276 8.95521L33.1275 12.0073Z" fill="white"/>
</svg>
