<svg width="137" height="139" viewBox="0 0 137 139" fill="none" xmlns="http://www.w3.org/2000/svg">
<mask id="mask0_272_3646" style="mask-type:alpha" maskUnits="userSpaceOnUse" x="-2" y="0" width="139" height="139">
<rect x="-2" width="139" height="139" fill="url(#paint0_linear_272_3646)"/>
</mask>
<g mask="url(#mask0_272_3646)">
<circle cx="5.44657" cy="13.6518" r="1.86161" fill="#C77EB5"/>
<circle cx="16.616" cy="13.6518" r="1.86161" fill="#C77EB5"/>
<circle cx="27.7859" cy="13.6518" r="1.86161" fill="#C77EB5"/>
<circle cx="38.9554" cy="13.6518" r="1.86161" fill="#C77EB5"/>
<circle cx="50.1253" cy="13.6518" r="1.86161" fill="#C77EB5"/>
<circle cx="61.2947" cy="13.6518" r="1.86161" fill="#C77EB5"/>
<circle cx="72.4646" cy="13.6518" r="1.86161" fill="#C77EB5"/>
<circle cx="83.6341" cy="13.6518" r="1.86161" fill="#C77EB5"/>
<circle cx="94.8035" cy="13.6518" r="1.86161" fill="#C77EB5"/>
<circle cx="105.973" cy="13.6518" r="1.86161" fill="#C77EB5"/>
<circle cx="117.143" cy="13.6518" r="1.86161" fill="#C77EB5"/>
<circle cx="128.313" cy="13.6518" r="1.86161" fill="#C77EB5"/>
<circle cx="5.44657" cy="24.8214" r="1.86161" fill="#C77EB5"/>
<circle cx="16.616" cy="24.8214" r="1.86161" fill="#C77EB5"/>
<circle cx="27.7859" cy="24.8214" r="1.86161" fill="#C77EB5"/>
<circle cx="38.9554" cy="24.8214" r="1.86161" fill="#C77EB5"/>
<circle cx="50.1253" cy="24.8214" r="1.86161" fill="#C77EB5"/>
<circle cx="61.2947" cy="24.8214" r="1.86161" fill="#C77EB5"/>
<circle cx="72.4646" cy="24.8214" r="1.86161" fill="#C77EB5"/>
<circle cx="83.6341" cy="24.8214" r="1.86161" fill="#C77EB5"/>
<circle cx="94.8035" cy="24.8214" r="1.86161" fill="#C77EB5"/>
<circle cx="105.973" cy="24.8214" r="1.86161" fill="#C77EB5"/>
<circle cx="117.143" cy="24.8214" r="1.86161" fill="#C77EB5"/>
<circle cx="128.313" cy="24.8214" r="1.86161" fill="#C77EB5"/>
<circle cx="5.44657" cy="35.9911" r="1.86161" fill="#C77EB5"/>
<circle cx="16.616" cy="35.9911" r="1.86161" fill="#C77EB5"/>
<circle cx="27.7859" cy="35.9911" r="1.86161" fill="#C77EB5"/>
<circle cx="38.9554" cy="35.9911" r="1.86161" fill="#C77EB5"/>
<circle cx="50.1253" cy="35.9911" r="1.86161" fill="#C77EB5"/>
<circle cx="61.2947" cy="35.9911" r="1.86161" fill="#C77EB5"/>
<circle cx="72.4646" cy="35.9911" r="1.86161" fill="#C77EB5"/>
<circle cx="83.6341" cy="35.9911" r="1.86161" fill="#C77EB5"/>
<circle cx="94.8035" cy="35.9911" r="1.86161" fill="#C77EB5"/>
<circle cx="105.973" cy="35.9911" r="1.86161" fill="#C77EB5"/>
<circle cx="117.143" cy="35.9911" r="1.86161" fill="#C77EB5"/>
<circle cx="128.313" cy="35.9911" r="1.86161" fill="#C77EB5"/>
<circle cx="5.44657" cy="47.1607" r="1.86161" fill="#C77EB5"/>
<circle cx="16.616" cy="47.1607" r="1.86161" fill="#C77EB5"/>
<circle cx="27.7859" cy="47.1607" r="1.86161" fill="#C77EB5"/>
<circle cx="38.9554" cy="47.1607" r="1.86161" fill="#C77EB5"/>
<circle cx="50.1253" cy="47.1607" r="1.86161" fill="#C77EB5"/>
<circle cx="61.2947" cy="47.1607" r="1.86161" fill="#C77EB5"/>
<circle cx="72.4646" cy="47.1607" r="1.86161" fill="#C77EB5"/>
<circle cx="83.6341" cy="47.1607" r="1.86161" fill="#C77EB5"/>
<circle cx="94.8035" cy="47.1607" r="1.86161" fill="#C77EB5"/>
<circle cx="105.973" cy="47.1607" r="1.86161" fill="#C77EB5"/>
<circle cx="117.143" cy="47.1607" r="1.86161" fill="#C77EB5"/>
<circle cx="128.313" cy="47.1607" r="1.86161" fill="#C77EB5"/>
<circle cx="5.44657" cy="58.3304" r="1.86161" fill="#C77EB5"/>
<circle cx="16.616" cy="58.3304" r="1.86161" fill="#C77EB5"/>
<circle cx="27.7859" cy="58.3304" r="1.86161" fill="#C77EB5"/>
<circle cx="38.9554" cy="58.3304" r="1.86161" fill="#C77EB5"/>
<circle cx="50.1253" cy="58.3304" r="1.86161" fill="#C77EB5"/>
<circle cx="61.2947" cy="58.3304" r="1.86161" fill="#C77EB5"/>
<circle cx="72.4646" cy="58.3304" r="1.86161" fill="#C77EB5"/>
<circle cx="83.6341" cy="58.3304" r="1.86161" fill="#C77EB5"/>
<circle cx="94.8035" cy="58.3304" r="1.86161" fill="#C77EB5"/>
<circle cx="105.973" cy="58.3304" r="1.86161" fill="#C77EB5"/>
<circle cx="117.143" cy="58.3304" r="1.86161" fill="#C77EB5"/>
<circle cx="128.313" cy="58.3304" r="1.86161" fill="#C77EB5"/>
<circle cx="5.44657" cy="69.5" r="1.86161" fill="#C77EB5"/>
<circle cx="16.616" cy="69.5" r="1.86161" fill="#C77EB5"/>
<circle cx="27.7859" cy="69.5" r="1.86161" fill="#C77EB5"/>
<circle cx="38.9554" cy="69.5" r="1.86161" fill="#C77EB5"/>
<circle cx="50.1253" cy="69.5" r="1.86161" fill="#C77EB5"/>
<circle cx="61.2947" cy="69.5" r="1.86161" fill="#C77EB5"/>
<circle cx="72.4646" cy="69.5" r="1.86161" fill="#C77EB5"/>
<circle cx="83.6341" cy="69.5" r="1.86161" fill="#C77EB5"/>
<circle cx="94.8035" cy="69.5" r="1.86161" fill="#C77EB5"/>
<circle cx="105.973" cy="69.5" r="1.86161" fill="#C77EB5"/>
<circle cx="117.143" cy="69.5" r="1.86161" fill="#C77EB5"/>
<circle cx="128.313" cy="69.5" r="1.86161" fill="#C77EB5"/>
<circle cx="5.44657" cy="80.6697" r="1.86161" fill="#C77EB5"/>
<circle cx="16.616" cy="80.6697" r="1.86161" fill="#C77EB5"/>
<circle cx="27.7859" cy="80.6697" r="1.86161" fill="#C77EB5"/>
<circle cx="38.9554" cy="80.6697" r="1.86161" fill="#C77EB5"/>
<circle cx="50.1253" cy="80.6697" r="1.86161" fill="#C77EB5"/>
<circle cx="61.2947" cy="80.6697" r="1.86161" fill="#C77EB5"/>
<circle cx="72.4646" cy="80.6697" r="1.86161" fill="#C77EB5"/>
<circle cx="83.6341" cy="80.6697" r="1.86161" fill="#C77EB5"/>
<circle cx="94.8035" cy="80.6697" r="1.86161" fill="#C77EB5"/>
<circle cx="105.973" cy="80.6697" r="1.86161" fill="#C77EB5"/>
<circle cx="117.143" cy="80.6697" r="1.86161" fill="#C77EB5"/>
<circle cx="128.313" cy="80.6697" r="1.86161" fill="#C77EB5"/>
<circle cx="5.44657" cy="91.8393" r="1.86161" fill="#C77EB5"/>
<circle cx="16.616" cy="91.8393" r="1.86161" fill="#C77EB5"/>
<circle cx="27.7859" cy="91.8393" r="1.86161" fill="#C77EB5"/>
<circle cx="38.9554" cy="91.8393" r="1.86161" fill="#C77EB5"/>
<circle cx="50.1253" cy="91.8393" r="1.86161" fill="#C77EB5"/>
<circle cx="61.2947" cy="91.8393" r="1.86161" fill="#C77EB5"/>
<circle cx="72.4646" cy="91.8393" r="1.86161" fill="#C77EB5"/>
<circle cx="83.6341" cy="91.8393" r="1.86161" fill="#C77EB5"/>
<circle cx="94.8035" cy="91.8393" r="1.86161" fill="#C77EB5"/>
<circle cx="105.973" cy="91.8393" r="1.86161" fill="#C77EB5"/>
<circle cx="117.143" cy="91.8393" r="1.86161" fill="#C77EB5"/>
<circle cx="128.313" cy="91.8393" r="1.86161" fill="#C77EB5"/>
<circle cx="5.44657" cy="103.009" r="1.86161" fill="#C77EB5"/>
<circle cx="16.616" cy="103.009" r="1.86161" fill="#C77EB5"/>
<circle cx="27.7859" cy="103.009" r="1.86161" fill="#C77EB5"/>
<circle cx="38.9554" cy="103.009" r="1.86161" fill="#C77EB5"/>
<circle cx="50.1253" cy="103.009" r="1.86161" fill="#C77EB5"/>
<circle cx="61.2947" cy="103.009" r="1.86161" fill="#C77EB5"/>
<circle cx="72.4646" cy="103.009" r="1.86161" fill="#C77EB5"/>
<circle cx="83.6341" cy="103.009" r="1.86161" fill="#C77EB5"/>
<circle cx="94.8035" cy="103.009" r="1.86161" fill="#C77EB5"/>
<circle cx="105.973" cy="103.009" r="1.86161" fill="#C77EB5"/>
<circle cx="117.143" cy="103.009" r="1.86161" fill="#C77EB5"/>
<circle cx="128.313" cy="103.009" r="1.86161" fill="#C77EB5"/>
<circle cx="5.44657" cy="114.179" r="1.86161" fill="#C77EB5"/>
<circle cx="16.616" cy="114.179" r="1.86161" fill="#C77EB5"/>
<circle cx="27.7859" cy="114.179" r="1.86161" fill="#C77EB5"/>
<circle cx="38.9554" cy="114.179" r="1.86161" fill="#C77EB5"/>
<circle cx="50.1253" cy="114.179" r="1.86161" fill="#C77EB5"/>
<circle cx="61.2947" cy="114.179" r="1.86161" fill="#C77EB5"/>
<circle cx="72.4646" cy="114.179" r="1.86161" fill="#C77EB5"/>
<circle cx="83.6341" cy="114.179" r="1.86161" fill="#C77EB5"/>
<circle cx="94.8035" cy="114.179" r="1.86161" fill="#C77EB5"/>
<circle cx="105.973" cy="114.179" r="1.86161" fill="#C77EB5"/>
<circle cx="117.143" cy="114.179" r="1.86161" fill="#C77EB5"/>
<circle cx="128.313" cy="114.179" r="1.86161" fill="#C77EB5"/>
<circle cx="5.44657" cy="125.348" r="1.86161" fill="#C77EB5"/>
<circle cx="16.616" cy="125.348" r="1.86161" fill="#C77EB5"/>
<circle cx="27.7859" cy="125.348" r="1.86161" fill="#C77EB5"/>
<circle cx="38.9554" cy="125.348" r="1.86161" fill="#C77EB5"/>
<circle cx="50.1253" cy="125.348" r="1.86161" fill="#C77EB5"/>
<circle cx="61.2947" cy="125.348" r="1.86161" fill="#C77EB5"/>
<circle cx="72.4646" cy="125.348" r="1.86161" fill="#C77EB5"/>
<circle cx="83.6341" cy="125.348" r="1.86161" fill="#C77EB5"/>
<circle cx="94.8035" cy="125.348" r="1.86161" fill="#C77EB5"/>
<circle cx="105.973" cy="125.348" r="1.86161" fill="#C77EB5"/>
<circle cx="117.143" cy="125.348" r="1.86161" fill="#C77EB5"/>
<circle cx="128.313" cy="125.348" r="1.86161" fill="#C77EB5"/>
</g>
<defs>
<linearGradient id="paint0_linear_272_3646" x1="-2" y1="69.5" x2="137" y2="69.5" gradientUnits="userSpaceOnUse">
<stop stop-color="#FD4C5C"/>
<stop offset="0.942708" stop-color="#FD4C5C" stop-opacity="0.06"/>
</linearGradient>
</defs>
</svg>
