<svg width="265" height="242" viewBox="0 0 265 242" fill="none" xmlns="http://www.w3.org/2000/svg">
<circle cx="3.89706" cy="3.89706" r="3.89706" fill="#C77EB5"/>
<circle cx="27.2794" cy="3.89706" r="3.89706" fill="#C77EB5"/>
<circle cx="50.6617" cy="3.89706" r="3.89706" fill="#C77EB5"/>
<circle cx="74.044" cy="3.89706" r="3.89706" fill="#C77EB5"/>
<circle cx="97.4264" cy="3.89706" r="3.89706" fill="#C77EB5"/>
<circle cx="120.809" cy="3.89706" r="3.89706" fill="#C77EB5"/>
<circle cx="144.191" cy="3.89706" r="3.89706" fill="#C77EB5"/>
<circle cx="167.574" cy="3.89706" r="3.89706" fill="#C77EB5"/>
<circle cx="190.956" cy="3.89706" r="3.89706" fill="#C77EB5"/>
<circle cx="214.338" cy="3.89706" r="3.89706" fill="#C77EB5"/>
<circle cx="237.721" cy="3.89706" r="3.89706" fill="#C77EB5"/>
<circle cx="261.103" cy="3.89706" r="3.89706" fill="#C77EB5"/>
<circle cx="3.89706" cy="27.2794" r="3.89706" fill="#C77EB5"/>
<circle cx="27.2794" cy="27.2794" r="3.89706" fill="#C77EB5"/>
<circle cx="50.6617" cy="27.2794" r="3.89706" fill="#C77EB5"/>
<circle cx="74.044" cy="27.2794" r="3.89706" fill="#C77EB5"/>
<circle cx="97.4264" cy="27.2794" r="3.89706" fill="#C77EB5"/>
<circle cx="120.809" cy="27.2794" r="3.89706" fill="#C77EB5"/>
<circle cx="144.191" cy="27.2794" r="3.89706" fill="#C77EB5"/>
<circle cx="167.574" cy="27.2794" r="3.89706" fill="#C77EB5"/>
<circle cx="190.956" cy="27.2794" r="3.89706" fill="#C77EB5"/>
<circle cx="214.338" cy="27.2794" r="3.89706" fill="#C77EB5"/>
<circle cx="237.721" cy="27.2794" r="3.89706" fill="#C77EB5"/>
<circle cx="261.103" cy="27.2794" r="3.89706" fill="#C77EB5"/>
<circle cx="3.89706" cy="50.6617" r="3.89706" fill="#C77EB5"/>
<circle cx="27.2794" cy="50.6617" r="3.89706" fill="#C77EB5"/>
<circle cx="50.6617" cy="50.6617" r="3.89706" fill="#C77EB5"/>
<circle cx="74.044" cy="50.6617" r="3.89706" fill="#C77EB5"/>
<circle cx="97.4264" cy="50.6617" r="3.89706" fill="#C77EB5"/>
<circle cx="120.809" cy="50.6617" r="3.89706" fill="#C77EB5"/>
<circle cx="144.191" cy="50.6617" r="3.89706" fill="#C77EB5"/>
<circle cx="167.574" cy="50.6617" r="3.89706" fill="#C77EB5"/>
<circle cx="190.956" cy="50.6617" r="3.89706" fill="#C77EB5"/>
<circle cx="214.338" cy="50.6617" r="3.89706" fill="#C77EB5"/>
<circle cx="237.721" cy="50.6617" r="3.89706" fill="#C77EB5"/>
<circle cx="261.103" cy="50.6617" r="3.89706" fill="#C77EB5"/>
<circle cx="3.89706" cy="74.044" r="3.89706" fill="#C77EB5"/>
<circle cx="27.2794" cy="74.044" r="3.89706" fill="#C77EB5"/>
<circle cx="50.6617" cy="74.044" r="3.89706" fill="#C77EB5"/>
<circle cx="74.044" cy="74.044" r="3.89706" fill="#C77EB5"/>
<circle cx="97.4264" cy="74.044" r="3.89706" fill="#C77EB5"/>
<circle cx="120.809" cy="74.044" r="3.89706" fill="#C77EB5"/>
<circle cx="144.191" cy="74.044" r="3.89706" fill="#C77EB5"/>
<circle cx="167.574" cy="74.044" r="3.89706" fill="#C77EB5"/>
<circle cx="190.956" cy="74.044" r="3.89706" fill="#C77EB5"/>
<circle cx="214.338" cy="74.044" r="3.89706" fill="#C77EB5"/>
<circle cx="237.721" cy="74.044" r="3.89706" fill="#C77EB5"/>
<circle cx="261.103" cy="74.044" r="3.89706" fill="#C77EB5"/>
<circle cx="3.89706" cy="97.4266" r="3.89706" fill="#C77EB5"/>
<circle cx="27.2794" cy="97.4266" r="3.89706" fill="#C77EB5"/>
<circle cx="50.6617" cy="97.4266" r="3.89706" fill="#C77EB5"/>
<circle cx="74.044" cy="97.4266" r="3.89706" fill="#C77EB5"/>
<circle cx="97.4264" cy="97.4266" r="3.89706" fill="#C77EB5"/>
<circle cx="120.809" cy="97.4266" r="3.89706" fill="#C77EB5"/>
<circle cx="144.191" cy="97.4266" r="3.89706" fill="#C77EB5"/>
<circle cx="167.574" cy="97.4266" r="3.89706" fill="#C77EB5"/>
<circle cx="190.956" cy="97.4266" r="3.89706" fill="#C77EB5"/>
<circle cx="214.338" cy="97.4266" r="3.89706" fill="#C77EB5"/>
<circle cx="237.721" cy="97.4266" r="3.89706" fill="#C77EB5"/>
<circle cx="261.103" cy="97.4266" r="3.89706" fill="#C77EB5"/>
<circle cx="3.89706" cy="120.809" r="3.89706" fill="#C77EB5"/>
<circle cx="27.2794" cy="120.809" r="3.89706" fill="#C77EB5"/>
<circle cx="50.6617" cy="120.809" r="3.89706" fill="#C77EB5"/>
<circle cx="74.044" cy="120.809" r="3.89706" fill="#C77EB5"/>
<circle cx="97.4264" cy="120.809" r="3.89706" fill="#C77EB5"/>
<circle cx="120.809" cy="120.809" r="3.89706" fill="#C77EB5"/>
<circle cx="144.191" cy="120.809" r="3.89706" fill="#C77EB5"/>
<circle cx="167.574" cy="120.809" r="3.89706" fill="#C77EB5"/>
<circle cx="190.956" cy="120.809" r="3.89706" fill="#C77EB5"/>
<circle cx="214.338" cy="120.809" r="3.89706" fill="#C77EB5"/>
<circle cx="237.721" cy="120.809" r="3.89706" fill="#C77EB5"/>
<circle cx="261.103" cy="120.809" r="3.89706" fill="#C77EB5"/>
<circle cx="3.89706" cy="144.191" r="3.89706" fill="#C77EB5"/>
<circle cx="27.2794" cy="144.191" r="3.89706" fill="#C77EB5"/>
<circle cx="50.6617" cy="144.191" r="3.89706" fill="#C77EB5"/>
<circle cx="74.044" cy="144.191" r="3.89706" fill="#C77EB5"/>
<circle cx="97.4264" cy="144.191" r="3.89706" fill="#C77EB5"/>
<circle cx="120.809" cy="144.191" r="3.89706" fill="#C77EB5"/>
<circle cx="144.191" cy="144.191" r="3.89706" fill="#C77EB5"/>
<circle cx="167.574" cy="144.191" r="3.89706" fill="#C77EB5"/>
<circle cx="190.956" cy="144.191" r="3.89706" fill="#C77EB5"/>
<circle cx="214.338" cy="144.191" r="3.89706" fill="#C77EB5"/>
<circle cx="237.721" cy="144.191" r="3.89706" fill="#C77EB5"/>
<circle cx="261.103" cy="144.191" r="3.89706" fill="#C77EB5"/>
<circle cx="3.89706" cy="167.574" r="3.89706" fill="#C77EB5"/>
<circle cx="27.2794" cy="167.574" r="3.89706" fill="#C77EB5"/>
<circle cx="50.6617" cy="167.574" r="3.89706" fill="#C77EB5"/>
<circle cx="74.044" cy="167.574" r="3.89706" fill="#C77EB5"/>
<circle cx="97.4264" cy="167.574" r="3.89706" fill="#C77EB5"/>
<circle cx="120.809" cy="167.574" r="3.89706" fill="#C77EB5"/>
<circle cx="144.191" cy="167.574" r="3.89706" fill="#C77EB5"/>
<circle cx="167.574" cy="167.574" r="3.89706" fill="#C77EB5"/>
<circle cx="190.956" cy="167.574" r="3.89706" fill="#C77EB5"/>
<circle cx="214.338" cy="167.574" r="3.89706" fill="#C77EB5"/>
<circle cx="237.721" cy="167.574" r="3.89706" fill="#C77EB5"/>
<circle cx="261.103" cy="167.574" r="3.89706" fill="#C77EB5"/>
<circle cx="3.89706" cy="190.956" r="3.89706" fill="#C77EB5"/>
<circle cx="27.2794" cy="190.956" r="3.89706" fill="#C77EB5"/>
<circle cx="50.6617" cy="190.956" r="3.89706" fill="#C77EB5"/>
<circle cx="74.044" cy="190.956" r="3.89706" fill="#C77EB5"/>
<circle cx="97.4264" cy="190.956" r="3.89706" fill="#C77EB5"/>
<circle cx="120.809" cy="190.956" r="3.89706" fill="#C77EB5"/>
<circle cx="144.191" cy="190.956" r="3.89706" fill="#C77EB5"/>
<circle cx="167.574" cy="190.956" r="3.89706" fill="#C77EB5"/>
<circle cx="190.956" cy="190.956" r="3.89706" fill="#C77EB5"/>
<circle cx="214.338" cy="190.956" r="3.89706" fill="#C77EB5"/>
<circle cx="237.721" cy="190.956" r="3.89706" fill="#C77EB5"/>
<circle cx="261.103" cy="190.956" r="3.89706" fill="#C77EB5"/>
<circle cx="3.89706" cy="214.338" r="3.89706" fill="#C77EB5"/>
<circle cx="27.2794" cy="214.338" r="3.89706" fill="#C77EB5"/>
<circle cx="50.6617" cy="214.338" r="3.89706" fill="#C77EB5"/>
<circle cx="74.044" cy="214.338" r="3.89706" fill="#C77EB5"/>
<circle cx="97.4264" cy="214.338" r="3.89706" fill="#C77EB5"/>
<circle cx="120.809" cy="214.338" r="3.89706" fill="#C77EB5"/>
<circle cx="144.191" cy="214.338" r="3.89706" fill="#C77EB5"/>
<circle cx="167.574" cy="214.338" r="3.89706" fill="#C77EB5"/>
<circle cx="190.956" cy="214.338" r="3.89706" fill="#C77EB5"/>
<circle cx="214.338" cy="214.338" r="3.89706" fill="#C77EB5"/>
<circle cx="237.721" cy="214.338" r="3.89706" fill="#C77EB5"/>
<circle cx="261.103" cy="214.338" r="3.89706" fill="#C77EB5"/>
<circle cx="3.89706" cy="237.721" r="3.89706" fill="#C77EB5"/>
<circle cx="27.2794" cy="237.721" r="3.89706" fill="#C77EB5"/>
<circle cx="50.6617" cy="237.721" r="3.89706" fill="#C77EB5"/>
<circle cx="74.044" cy="237.721" r="3.89706" fill="#C77EB5"/>
<circle cx="97.4264" cy="237.721" r="3.89706" fill="#C77EB5"/>
<circle cx="120.809" cy="237.721" r="3.89706" fill="#C77EB5"/>
<circle cx="144.191" cy="237.721" r="3.89706" fill="#C77EB5"/>
<circle cx="167.574" cy="237.721" r="3.89706" fill="#C77EB5"/>
<circle cx="190.956" cy="237.721" r="3.89706" fill="#C77EB5"/>
<circle cx="214.338" cy="237.721" r="3.89706" fill="#C77EB5"/>
<circle cx="237.721" cy="237.721" r="3.89706" fill="#C77EB5"/>
<circle cx="261.103" cy="237.721" r="3.89706" fill="#C77EB5"/>
</svg>
