<svg width="25" height="17" viewBox="0 0 25 17" fill="none" xmlns="http://www.w3.org/2000/svg">
<path d="M23.6806 7.50024H1.31944C0.590735 7.50024 0 7.92557 0 8.45024V8.55024C0 9.07491 0.590735 9.50024 1.31944 9.50024H23.6806C24.4093 9.50024 25 9.07491 25 8.55024V8.45024C25 7.92557 24.4093 7.50024 23.6806 7.50024Z" fill="#552685"/>
<path d="M23.6806 15.0002H1.31944C0.590735 15.0002 0 15.4256 0 15.9502V16.0502C0 16.5749 0.590735 17.0002 1.31944 17.0002H23.6806C24.4093 17.0002 25 16.5749 25 16.0502V15.9502C25 15.4256 24.4093 15.0002 23.6806 15.0002Z" fill="#552685"/>
<path d="M23.6806 0H1.31944C0.590735 0 0 0.425329 0 0.95V1.05C0 1.57467 0.590735 2 1.31944 2H23.6806C24.4093 2 25 1.57467 25 1.05V0.95C25 0.425329 24.4093 0 23.6806 0Z" fill="#552685"/>
</svg>
