<svg width="51" height="51" viewBox="0 0 51 51" fill="none" xmlns="http://www.w3.org/2000/svg">
<path fill-rule="evenodd" clip-rule="evenodd" d="M24.422 0.0321523C21.7818 0.191026 19.5038 0.620229 17.2364 1.38595C10.5669 3.63838 5.04022 8.71268 2.15232 15.2351C-0.608836 21.4713 -0.719013 28.8154 1.85461 35.0822C3.09558 38.104 4.86538 40.8446 7.00624 43.0592C10.4095 46.5799 14.3706 48.9358 18.9068 50.137C20.9616 50.6811 22.4086 50.8854 24.9788 50.9943C25.7204 51.0258 27.7902 50.9221 28.691 50.8085C36.452 49.8295 43.3403 45.332 47.3812 38.6055C51.1916 32.2627 52.0387 24.5671 49.7046 17.4955C46.7752 8.62014 39.1867 2.05335 29.9531 0.403253C28.9492 0.223899 28.1505 0.136559 26.7978 0.0582729C25.5816 -0.0121478 25.2241 -0.0160811 24.422 0.0321523ZM34.0736 13.5012C35.2456 13.6975 36.4712 14.3115 37.3597 15.1476L37.7504 15.5152L38.1764 15.4215C39.0269 15.2344 40.0337 14.8742 41.0084 14.4082C41.5559 14.1465 42.0131 13.9416 42.0244 13.9528C42.0357 13.9641 41.9527 14.1915 41.8402 14.4582C41.4074 15.4835 40.5525 16.5699 39.6808 17.2024C39.3327 17.455 39.2596 17.538 39.3696 17.5553C39.6026 17.5919 41.2004 17.2077 41.9723 16.9294C43.0679 16.5346 43.0024 16.5394 42.7561 16.8713C41.9415 17.969 40.8435 19.1157 39.9943 19.7555L39.6047 20.049V20.9535C39.6047 26.0218 37.4535 31.1578 33.8114 34.7853C31.0433 37.5424 27.6501 39.2716 23.7579 39.9084C19.5904 40.5903 15.4032 39.9871 11.814 38.1875C11.2674 37.9134 10.0561 37.2392 10.0561 37.209C10.0561 37.2024 10.7493 37.1965 11.5966 37.1959C12.9982 37.1949 13.2308 37.1756 14.1765 36.9823C15.4678 36.7182 16.4371 36.3888 17.6077 35.8162C18.4059 35.4258 19.7933 34.5759 19.8914 34.4173C19.9108 34.3859 19.702 34.3375 19.4273 34.3097C17.4611 34.1106 15.5335 32.9434 14.4782 31.3128C14.1555 30.8143 13.8578 30.2219 13.7395 29.8427C13.6913 29.6883 13.7017 29.6867 14.5846 29.7231C15.4579 29.7591 16.6261 29.6362 16.5519 29.5162C16.5334 29.4863 16.4162 29.4413 16.2915 29.4164C15.0651 29.1713 13.3951 28.0094 12.5426 26.8083C11.8529 25.8365 11.4194 24.6525 11.343 23.5309L11.2966 22.8507L11.9473 23.1118C12.5744 23.3635 13.7553 23.6541 14.1394 23.6512L14.325 23.6499L14.1023 23.4869C13.706 23.1971 13.0894 22.5888 12.7678 22.1705C11.4888 20.5066 11.0471 18.3202 11.5784 16.2818C11.7158 15.7545 12.1197 14.768 12.2248 14.7032C12.2666 14.6773 12.4359 14.8192 12.6009 15.0184C12.9766 15.472 14.0978 16.5832 14.7339 17.1325C17.0423 19.1256 20.0933 20.6276 23.1599 21.2806C23.9855 21.4564 25.3911 21.651 25.8352 21.651C26.2139 21.651 26.1997 21.697 26.0849 20.8443C25.8798 19.3215 26.3996 17.4202 27.3756 16.1227C28.9467 14.0342 31.4367 13.0597 34.0736 13.5012Z" fill="white"/>
</svg>
