<svg width="51" height="51" viewBox="0 0 51 51" fill="none" xmlns="http://www.w3.org/2000/svg">
<path fill-rule="evenodd" clip-rule="evenodd" d="M22.5343 0.111769C12.7564 1.34457 4.57343 7.98242 1.33805 17.3057C-1.06741 24.2374 -0.188481 32.3803 3.64337 38.665C7.41457 44.8503 13.3909 49.0534 20.5841 50.5793C23.2212 51.1389 27.8121 51.1404 30.4179 50.5828C39.6509 48.6069 46.8169 42.2385 49.7979 33.3596C51.3672 28.6854 51.4023 22.8261 49.8895 18.0346C47.023 8.95518 39.7213 2.35085 30.4623 0.462838C28.3938 0.0412027 24.4723 -0.132568 22.5343 0.111769ZM33.0825 15.8072C36.9085 16.0364 37.7004 16.2073 38.567 16.9908C39.7491 18.0593 39.8112 18.523 39.7486 25.8098C39.6964 31.8738 39.6793 32.1527 39.3163 32.8303C38.2261 34.866 36.7278 35.1119 25.4128 35.1119C14.5271 35.1119 12.8327 34.8657 11.7285 33.1232L11.2194 32.3201V25.4674C11.2194 19.0912 11.2427 18.5692 11.5534 17.9602C12.1014 16.8858 12.971 16.3063 14.3931 16.0674C16.7769 15.6673 28.1125 15.5094 33.0825 15.8072ZM21.0931 25.4208C21.0931 28.4773 21.1312 30.978 21.1779 30.978C21.2833 30.978 30.4739 25.6846 30.6652 25.5136C30.7417 25.4452 29.7896 24.8076 28.5494 24.0968C27.3091 23.3859 25.1547 22.1427 23.7616 21.334C22.3685 20.5253 21.1982 19.8637 21.161 19.8637C21.1236 19.8637 21.0931 22.3644 21.0931 25.4208Z" fill="white"/>
</svg>
