<svg width="85" height="84" viewBox="0 0 85 84" fill="none" xmlns="http://www.w3.org/2000/svg">
<mask id="mask0_1080_189" style="mask-type:luminance" maskUnits="userSpaceOnUse" x="0" y="0" width="85" height="84">
<path d="M11.9168 45.0462C11.9168 50.7546 16.526 55.3584 22.2676 55.3584C28.0092 55.3584 32.6351 50.7546 32.6351 45.0462C32.6351 39.3377 28.0037 34.7505 22.2676 34.7505C16.5316 34.7505 11.9168 39.3653 11.9168 45.0462ZM65.7921 31.3177C71.5226 31.3177 76.165 35.9381 76.165 41.6106V58.7939H72.6963V41.6106C72.6963 37.8188 69.6198 34.7505 65.7921 34.7505C61.9643 34.7505 58.885 37.8188 58.885 41.6106V58.7939H55.4329V41.6106C55.4329 37.8188 52.3398 34.7505 48.5176 34.7505C44.6954 34.7505 41.6133 37.8188 41.6133 41.6106V58.7939H38.1585V41.6106C38.1585 35.9381 42.7898 31.3177 48.5176 31.3177C52.1272 31.3177 55.2976 33.1349 57.1645 35.9215C59.0121 33.1349 62.1825 31.3177 65.7948 31.3177M32.6378 21.0055H36.101V45.0434C36.101 52.6408 29.9148 58.7939 22.2731 58.7939C14.6315 58.7939 8.45358 52.6436 8.45358 45.0434C8.45358 37.4432 14.6398 31.315 22.2731 31.315C26.4102 31.315 30.1109 33.1073 32.6406 35.9657V21.0055H32.6378ZM14.1178 0C6.28288 0.132562 0 6.49 0 14.3001V69.6944C0 77.5873 6.4182 84 14.3691 84H70.1141C78.054 84 84.5026 77.5873 84.5026 69.6944V14.3001C84.5026 6.48724 78.1894 0.1298 70.3627 0H14.1206H14.1178Z" fill="white"/>
</mask>
<g mask="url(#mask0_1080_189)">
<path d="M42.2481 -42.2477L-42.0024 42.0028L42.2481 126.253L126.499 42.0028L42.2481 -42.2477Z" fill="url(#paint0_linear_1080_189)"/>
</g>
<path d="M32.6328 35.969C30.1058 33.1107 26.4052 31.3183 22.2681 31.3183C14.632 31.3183 8.4458 37.4659 8.4458 45.0467C8.4458 52.6276 14.632 58.7973 22.2681 58.7973C29.9042 58.7973 36.096 52.6469 36.096 45.0467V21.0061H32.6328V35.969ZM22.2681 55.3589C16.521 55.3589 11.9173 50.7552 11.9173 45.0467C11.9173 39.3383 16.5238 34.7511 22.2681 34.7511C28.0125 34.7511 32.6328 39.3659 32.6328 45.0467C32.6328 50.7276 28.0014 55.3589 22.2681 55.3589Z" fill="white"/>
<path d="M65.7925 31.3184C62.1829 31.3184 59.0097 33.1356 57.1621 35.9221C55.2952 33.1356 52.1248 31.3184 48.5152 31.3184C42.7875 31.3184 38.1533 35.9387 38.1533 41.614V58.7973H41.611V41.614C41.611 37.8222 44.6986 34.7512 48.5152 34.7512C52.3319 34.7512 55.4305 37.8194 55.4305 41.614V58.7973H58.8827V41.614C58.8827 37.8222 61.9868 34.7512 65.7897 34.7512C69.5926 34.7512 72.694 37.8194 72.694 41.614V58.7973H76.1627V41.614C76.1627 35.9415 71.523 31.3184 65.7897 31.3184" fill="white"/>
<defs>
<linearGradient id="paint0_linear_1080_189" x1="4.27049" y1="79.8869" x2="80.0561" y2="4.10133" gradientUnits="userSpaceOnUse">
<stop stop-color="#5C2483"/>
<stop offset="1" stop-color="#CD80B4"/>
</linearGradient>
</defs>
</svg>
